<svg xmlns="http://www.w3.org/2000/svg" width="24" height="24" viewBox="0 0 24 24" fill="none">
<path d="M12.7495 9.375C12.7495 9.5975 12.6835 9.81501 12.5599 10C12.4363 10.185 12.2606 10.3292 12.055 10.4144C11.8495 10.4995 11.6233 10.5218 11.405 10.4784C11.1868 10.435 10.9864 10.3278 10.829 10.1705C10.6717 10.0132 10.5645 9.81271 10.5211 9.59448C10.4777 9.37625 10.5 9.15005 10.5852 8.94448C10.6703 8.73891 10.8145 8.56321 10.9995 8.4396C11.1845 8.31598 11.402 8.25 11.6245 8.25C11.9229 8.25 12.209 8.36853 12.42 8.5795C12.631 8.79048 12.7495 9.07663 12.7495 9.375ZM21.7495 12.1388C21.7073 14.6646 20.689 17.0761 18.9081 18.8679C17.1273 20.6596 14.722 21.6925 12.1964 21.75H11.993C9.60192 21.7668 7.28916 20.8986 5.49983 19.3125C5.35065 19.1798 5.26027 18.9934 5.24858 18.7941C5.24279 18.6954 5.25649 18.5966 5.28891 18.5032C5.32132 18.4098 5.37181 18.3237 5.43749 18.2498C5.50317 18.176 5.58276 18.1158 5.67171 18.0727C5.76066 18.0295 5.85723 18.0044 5.9559 17.9986C6.15519 17.9869 6.35096 18.0549 6.50014 18.1875C7.06521 18.6931 7.69978 19.1152 8.38452 19.4409L10.8745 16.0162C8.73889 15.0947 6.42421 15.4866 5.11827 15.7078C4.56555 15.8033 3.99713 15.7411 3.47814 15.5283C2.95915 15.3156 2.5106 14.9609 2.18389 14.505L2.15577 14.4647L0.863895 12.4022C0.811505 12.3183 0.77622 12.2249 0.760069 12.1273C0.743919 12.0298 0.747223 11.93 0.76979 11.8337C0.792357 11.7374 0.833743 11.6466 0.891565 11.5663C0.949387 11.4861 1.0225 11.4181 1.10671 11.3663L10.4995 5.58094V3C10.4995 2.80109 10.5785 2.61032 10.7192 2.46967C10.8598 2.32902 11.0506 2.25 11.2495 2.25H11.9995C13.2917 2.24987 14.571 2.50658 15.763 3.00522C16.9551 3.50386 18.0361 4.23447 18.9433 5.15459C19.8505 6.07471 20.5658 7.16598 21.0476 8.36496C21.5293 9.56395 21.7679 10.8467 21.7495 12.1388ZM20.2495 12.1181C20.2652 11.0248 20.0633 9.93931 19.6558 8.9247C19.2482 7.91009 18.643 6.98662 17.8753 6.20798C17.1077 5.42934 16.1929 4.81107 15.1842 4.3891C14.1755 3.96713 13.0929 3.74989 11.9995 3.75V6C11.9994 6.12806 11.9666 6.25396 11.904 6.36572C11.8415 6.47748 11.7514 6.57137 11.6423 6.63844L2.53639 12.2428L3.41389 13.6491C3.5794 13.8719 3.80377 14.0442 4.06179 14.1465C4.31981 14.2489 4.60126 14.2772 4.87452 14.2284C6.37452 13.9753 9.44671 13.4559 12.1936 14.9953C13.1528 14.9442 14.0561 14.5275 14.7175 13.8309C15.3789 13.1342 15.7482 12.2106 15.7495 11.25C15.7495 11.0511 15.8285 10.8603 15.9692 10.7197C16.1098 10.579 16.3006 10.5 16.4995 10.5C16.6984 10.5 16.8892 10.579 17.0299 10.7197C17.1705 10.8603 17.2495 11.0511 17.2495 11.25C17.2477 12.5736 16.7466 13.8478 15.8464 14.818C14.9461 15.7883 13.713 16.3833 12.3933 16.4841L9.85171 19.9791C10.6072 20.175 11.3861 20.2661 12.1664 20.25C14.3029 20.2002 16.3374 19.326 17.844 17.8103C19.3506 16.2946 20.2126 14.2549 20.2495 12.1181Z" fill="#2C3F50"/>
</svg>
