<svg xmlns="http://www.w3.org/2000/svg" width="40" height="40" viewBox="0 0 40 40" fill="none">
<path d="M18.75 21.25V12.5C18.75 12.1685 18.8817 11.8505 19.1161 11.6161C19.3506 11.3817 19.6685 11.25 20 11.25C20.3315 11.25 20.6495 11.3817 20.8839 11.6161C21.1183 11.8505 21.25 12.1685 21.25 12.5V21.25C21.25 21.5815 21.1183 21.8995 20.8839 22.1339C20.6495 22.3683 20.3315 22.5 20 22.5C19.6685 22.5 19.3506 22.3683 19.1161 22.1339C18.8817 21.8995 18.75 21.5815 18.75 21.25ZM36.25 14.3047V25.6953C36.2511 26.0237 36.1868 26.3491 36.061 26.6525C35.9352 26.9559 35.7504 27.2312 35.5172 27.4625L27.4625 35.5172C27.2312 35.7504 26.9559 35.9352 26.6525 36.061C26.3491 36.1868 26.0237 36.2511 25.6953 36.25H14.3047C13.9763 36.2511 13.6509 36.1868 13.3475 36.061C13.0442 35.9352 12.7688 35.7504 12.5375 35.5172L4.48283 27.4625C4.24967 27.2312 4.06482 26.9559 3.93901 26.6525C3.81321 26.3491 3.74896 26.0237 3.75001 25.6953V14.3047C3.74896 13.9763 3.81321 13.6509 3.93901 13.3475C4.06482 13.0442 4.24967 12.7688 4.48283 12.5375L12.5375 4.48283C12.7688 4.24967 13.0442 4.06482 13.3475 3.93901C13.6509 3.81321 13.9763 3.74896 14.3047 3.75001H25.6953C26.0237 3.74896 26.3491 3.81321 26.6525 3.93901C26.9559 4.06482 27.2312 4.24967 27.4625 4.48283L35.5172 12.5375C35.7504 12.7688 35.9352 13.0442 36.061 13.3475C36.1868 13.6509 36.2511 13.9763 36.25 14.3047ZM33.75 14.3047L25.6953 6.25001H14.3047L6.25001 14.3047V25.6953L14.3047 33.75H25.6953L33.75 25.6953V14.3047ZM20 25C19.6292 25 19.2667 25.11 18.9583 25.316C18.65 25.522 18.4097 25.8149 18.2677 26.1575C18.1258 26.5001 18.0887 26.8771 18.161 27.2408C18.2334 27.6045 18.412 27.9386 18.6742 28.2008C18.9364 28.4631 19.2705 28.6416 19.6342 28.714C19.9979 28.7863 20.3749 28.7492 20.7175 28.6073C21.0602 28.4654 21.353 28.225 21.559 27.9167C21.765 27.6084 21.875 27.2459 21.875 26.875C21.875 26.3777 21.6775 25.9008 21.3258 25.5492C20.9742 25.1976 20.4973 25 20 25Z" fill="#F04438"/>
</svg>
