<svg xmlns="http://www.w3.org/2000/svg" width="16" height="16" viewBox="0 0 16 16" fill="none">
  <path d="M11.0788 0C11.1161 0 11.1533 0 11.1926 0C11.284 1.12835 10.8533 1.97146 10.3299 2.582C9.81627 3.18834 9.11298 3.7764 7.97549 3.68717C7.89961 2.57498 8.331 1.79441 8.85373 1.18526C9.33851 0.617573 10.2273 0.112414 11.0788 0Z" fill="black"/>
  <path d="M14.5227 11.7456C14.5227 11.7568 14.5227 11.7666 14.5227 11.7772C14.2031 12.7453 13.7471 13.5751 13.1906 14.3451C12.6827 15.0442 12.0602 15.985 10.9487 15.985C9.98824 15.985 9.35029 15.3674 8.36597 15.3505C7.32474 15.3337 6.75213 15.8669 5.80012 16.0011C5.69122 16.0011 5.58232 16.0011 5.47553 16.0011C4.77646 15.9 4.21228 15.3463 3.80127 14.8475C2.5893 13.3735 1.65276 11.4694 1.47852 9.03287C1.47852 8.79399 1.47852 8.55582 1.47852 8.31694C1.55229 6.57312 2.39961 5.1553 3.52585 4.46817C4.12024 4.10282 4.93735 3.79158 5.8472 3.93069C6.23713 3.99111 6.6355 4.1246 6.98469 4.25669C7.3156 4.38386 7.72943 4.60939 8.12147 4.59744C8.38705 4.58972 8.65122 4.45131 8.91891 4.35365C9.70299 4.0705 10.4716 3.74591 11.4848 3.89837C12.7023 4.08245 13.5665 4.62344 14.1005 5.45811C13.0705 6.11363 12.2562 7.10146 12.3953 8.78837C12.519 10.3207 13.4098 11.2172 14.5227 11.7456Z" fill="black"/>
</svg>
