<svg xmlns="http://www.w3.org/2000/svg" width="40" height="40" viewBox="0 0 40 40" fill="none">
  <g clip-path="url(#clip0_7488_9410)">
    <path d="M7.58197 13.6828C8.04747 13.0843 8.37997 12.2863 8.28022 11.4883C7.58197 11.5215 6.75071 11.9538 6.25196 12.519C5.81971 13.0178 5.4207 13.849 5.52045 14.6138C6.31846 14.7136 7.08321 14.2813 7.58197 13.6828ZM8.28022 14.8133C7.14971 14.7468 6.18546 15.4451 5.65345 15.4451C5.12145 15.4451 4.2902 14.8466 3.39244 14.8466C2.22868 14.8798 1.16468 15.5116 0.566172 16.5756C-0.630836 18.6703 0.23367 21.7626 1.43068 23.4584C1.99593 24.2896 2.69419 25.2206 3.59194 25.1874C4.45645 25.1541 4.78895 24.6221 5.81971 24.6221C6.85046 24.6221 7.14971 25.1874 8.08072 25.1541C9.01173 25.1209 9.61023 24.3229 10.1755 23.4584C10.8405 22.4941 11.1065 21.5631 11.1065 21.5298C11.0732 21.4966 9.27773 20.8316 9.27773 18.7701C9.24448 17.0411 10.6742 16.2098 10.7407 16.1766C9.97598 14.9796 8.71247 14.8466 8.28022 14.8133Z" fill="black"/>
    <path d="M18.0555 12.4531C20.516 12.4531 22.2118 14.1489 22.2118 16.5762C22.2118 19.0367 20.4828 20.7324 17.989 20.7324H15.2957V25.0217H13.334V12.4531H18.0555ZM15.2957 19.1032H17.5235C19.2193 19.1032 20.1835 18.1722 20.1835 16.6094C20.1835 15.0134 19.2193 14.1156 17.5235 14.1156H15.2625V19.1032H15.2957ZM22.7105 22.4614C22.7105 20.8654 23.9408 19.8679 26.1353 19.7349L28.6623 19.6019V18.9037C28.6623 17.8729 27.9641 17.2744 26.8336 17.2744C25.7363 17.2744 25.0713 17.8064 24.9051 18.6044H23.1095C23.2093 16.9419 24.6391 15.7116 26.9001 15.7116C29.1278 15.7116 30.5576 16.8754 30.5576 18.7374V25.055H28.7621V23.5587H28.7288C28.1968 24.5895 27.0331 25.2212 25.8361 25.2212C23.9741 25.2212 22.7105 24.0907 22.7105 22.4614ZM28.6623 21.6302V20.8987L26.4013 21.0317C25.2708 21.0982 24.6391 21.5969 24.6391 22.3949C24.6391 23.1929 25.3041 23.7249 26.3016 23.7249C27.6316 23.7249 28.6623 22.8272 28.6623 21.6302ZM32.2201 28.4465V26.917C32.3531 26.9502 32.6856 26.9502 32.8186 26.9502C33.6831 26.9502 34.1486 26.5845 34.4479 25.6535C34.4479 25.6202 34.6141 25.0882 34.6141 25.0882L31.2891 15.9111H33.3174L35.6449 23.3924H35.6781L38.0056 15.9111H40.0007L36.5759 25.587C35.7779 27.8147 34.8801 28.513 32.9849 28.513C32.8519 28.4797 32.3864 28.4797 32.2201 28.4465Z" fill="black"/>
  </g>
  <defs>
    <clipPath id="clip0_7488_9410">
      <rect width="40" height="40" fill="white"/>
    </clipPath>
  </defs>
</svg>
