<svg width="32" height="40" viewBox="0 0 32 40" fill="none" xmlns="http://www.w3.org/2000/svg">
<path id="Vector" d="M26.7254 21.2288C26.7806 27.1763 31.9429 29.1554 32 29.1806C31.9562 29.3201 31.1751 32.001 29.2804 34.7701C27.6424 37.1642 25.9423 39.5495 23.2641 39.5989C20.6329 39.6474 19.7866 38.0385 16.7781 38.0385C13.7705 38.0385 12.8304 39.5495 10.3394 39.6474C7.7544 39.7452 5.7859 37.0586 4.1344 34.6732C0.759407 29.7941 -1.81972 20.8858 1.64341 14.8725C3.36378 11.8863 6.4384 9.9954 9.7754 9.9469C12.3138 9.89853 14.7098 11.6546 16.2615 11.6546C17.8123 11.6546 20.7239 9.54278 23.7848 9.8529C25.066 9.90628 28.663 10.3704 30.9726 13.7511C30.7864 13.8665 26.6808 16.2566 26.7254 21.2289M21.78 6.62491C23.1525 4.96366 24.0761 2.65116 23.8241 0.350037C21.8459 0.429537 19.4539 1.66829 18.0349 3.32853C16.7633 4.79891 15.6496 7.15215 15.9501 9.40765C18.1551 9.57828 20.4075 8.28715 21.78 6.62491Z" fill="black"/>
</svg>
