<svg width="18" height="10" viewBox="0 0 18 10" fill="none" xmlns="http://www.w3.org/2000/svg">
<path d="M0.968958 7.96994L8.46896 0.469936C8.53861 0.400204 8.62133 0.344885 8.71238 0.307141C8.80343 0.269398 8.90102 0.249972 8.99958 0.249972C9.09814 0.249972 9.19574 0.269398 9.28679 0.307141C9.37784 0.344885 9.46055 0.400204 9.53021 0.469936L17.0302 7.96993C17.1709 8.11066 17.25 8.30154 17.25 8.50056C17.25 8.69958 17.1709 8.89045 17.0302 9.03118C16.8895 9.17192 16.6986 9.25098 16.4996 9.25098C16.3006 9.25098 16.1097 9.17192 15.969 9.03119L8.99958 2.06087L2.03021 9.03119C1.96053 9.10087 1.8778 9.15614 1.78676 9.19386C1.69571 9.23157 1.59813 9.25098 1.49958 9.25098C1.40104 9.25098 1.30346 9.23157 1.21241 9.19386C1.12137 9.15614 1.03864 9.10087 0.968958 9.03119C0.899275 8.9615 0.844002 8.87878 0.80629 8.78773C0.768578 8.69669 0.749166 8.59911 0.749166 8.50056C0.749166 8.40201 0.768577 8.30443 0.80629 8.21339C0.844002 8.12234 0.899275 8.03962 0.968958 7.96994Z" fill="#233240"/>
</svg>
