<svg width="7" height="12" viewBox="0 0 7 12" fill="none" xmlns="http://www.w3.org/2000/svg">
<path d="M6.5306 6.53255L1.5306 11.5326C1.3897 11.6734 1.19861 11.7526 0.999348 11.7526C0.80009 11.7526 0.608994 11.6734 0.468098 11.5326C0.327201 11.3917 0.248047 11.2006 0.248047 11.0013C0.248047 10.802 0.327201 10.6109 0.468098 10.4701L4.93747 6.00193L0.469348 1.53255C0.399583 1.46279 0.344243 1.37996 0.306486 1.28881C0.26873 1.19766 0.249297 1.09996 0.249297 1.0013C0.249297 0.902639 0.26873 0.804942 0.306486 0.71379C0.344243 0.622638 0.399583 0.539816 0.469348 0.470051C0.539113 0.400286 0.621936 0.344946 0.713088 0.307189C0.80424 0.269433 0.901936 0.25 1.0006 0.25C1.09926 0.25 1.19696 0.269433 1.28811 0.307189C1.37926 0.344946 1.46208 0.400286 1.53185 0.470051L6.53185 5.47005C6.60169 5.53981 6.65707 5.62267 6.69481 5.71388C6.73256 5.80509 6.75193 5.90285 6.75181 6.00156C6.7517 6.10027 6.7321 6.19799 6.69414 6.28911C6.65617 6.38023 6.6006 6.46296 6.5306 6.53255Z" fill="#808C96"/>
</svg>
