<svg width="18" height="10" viewBox="0 0 18 10" fill="none" xmlns="http://www.w3.org/2000/svg">
<path d="M0.968958 2.01249L8.46896 9.51249C8.53861 9.58222 8.62133 9.63754 8.71238 9.67528C8.80343 9.71302 8.90102 9.73245 8.99958 9.73245C9.09814 9.73245 9.19574 9.71302 9.28679 9.67528C9.37784 9.63754 9.46055 9.58222 9.53021 9.51249L17.0302 2.01249C17.1709 1.87176 17.25 1.68089 17.25 1.48186C17.25 1.28284 17.1709 1.09197 17.0302 0.951237C16.8895 0.810506 16.6986 0.731445 16.4996 0.731445C16.3006 0.731445 16.1097 0.810506 15.969 0.951237L8.99958 7.92155L2.03021 0.951236C1.96053 0.881553 1.8778 0.826278 1.78676 0.788566C1.69571 0.750854 1.59813 0.731444 1.49958 0.731444C1.40104 0.731444 1.30346 0.750854 1.21241 0.788566C1.12137 0.826278 1.03864 0.881553 0.968958 0.951236C0.899275 1.02092 0.844002 1.10364 0.80629 1.19469C0.768578 1.28573 0.749166 1.38331 0.749166 1.48186C0.749166 1.58041 0.768577 1.67799 0.80629 1.76903C0.844002 1.86008 0.899275 1.9428 0.968958 2.01249Z" fill="#233240"/>
</svg>
