<svg xmlns="http://www.w3.org/2000/svg" width="24" height="24" viewBox="0 0 24 24" fill="none">
<path d="M14.468 20.031L6.96798 12.531C6.89825 12.4614 6.84293 12.3787 6.80519 12.2876C6.76744 12.1966 6.74802 12.099 6.74802 12.0004C6.74802 11.9019 6.76744 11.8043 6.80519 11.7132C6.84293 11.6222 6.89825 11.5394 6.96798 11.4698L14.468 3.96979C14.6087 3.82906 14.7996 3.75 14.9986 3.75C15.1976 3.75 15.3885 3.82906 15.5292 3.96979C15.67 4.11052 15.749 4.30139 15.749 4.50042C15.749 4.69944 15.67 4.89031 15.5292 5.03104L8.55892 12.0004L15.5292 18.9698C15.5989 19.0395 15.6542 19.1222 15.6919 19.2132C15.7296 19.3043 15.749 19.4019 15.749 19.5004C15.749 19.599 15.7296 19.6965 15.6919 19.7876C15.6542 19.8786 15.5989 19.9614 15.5292 20.031C15.4595 20.1007 15.3768 20.156 15.2858 20.1937C15.1947 20.2314 15.0972 20.2508 14.9986 20.2508C14.9001 20.2508 14.8025 20.2314 14.7114 20.1937C14.6204 20.156 14.5377 20.1007 14.468 20.031Z" fill="#2C3F50"/>
</svg>
