<svg width="28" height="26" viewBox="0 0 28 26" fill="none" xmlns="http://www.w3.org/2000/svg">
<path d="M15.7513 9.5C15.7513 9.74723 15.678 9.9889 15.5406 10.1945C15.4033 10.4 15.208 10.5602 14.9796 10.6548C14.7512 10.7495 14.4999 10.7742 14.2574 10.726C14.0149 10.6777 13.7922 10.5587 13.6174 10.3839C13.4426 10.2091 13.3235 9.98634 13.2753 9.74386C13.2271 9.50139 13.2518 9.25005 13.3464 9.02164C13.441 8.79324 13.6013 8.59801 13.8068 8.46066C14.0124 8.32331 14.254 8.25 14.5013 8.25C14.8328 8.25 15.1507 8.3817 15.3852 8.61612C15.6196 8.85054 15.7513 9.16848 15.7513 9.5ZM27.7513 13.1812C27.6959 16.4843 26.3643 19.6377 24.0355 21.9808C21.7067 24.3238 18.5614 25.6746 15.2588 25.75H14.9925C11.8652 25.771 8.84066 24.6343 6.50128 22.5587C6.42528 22.4938 6.36303 22.4144 6.31817 22.3251C6.27332 22.2358 6.24677 22.1384 6.24008 22.0387C6.2334 21.9389 6.24671 21.8389 6.27924 21.7444C6.31177 21.6499 6.36286 21.5628 6.4295 21.4883C6.49615 21.4139 6.57701 21.3535 6.66734 21.3107C6.75766 21.2679 6.85563 21.2436 6.95548 21.2392C7.05533 21.2348 7.15504 21.2504 7.24877 21.2851C7.3425 21.3198 7.42835 21.3729 7.50128 21.4412C8.32512 22.1774 9.25619 22.784 10.2625 23.24L13.8875 18.2537C10.8963 16.8325 7.61503 17.3875 5.78753 17.6975C5.09626 17.8182 4.38496 17.7415 3.73533 17.4762C3.0857 17.2109 2.52409 16.7677 2.11503 16.1975C2.10515 16.1847 2.09597 16.1713 2.08753 16.1575L0.363776 13.4075C0.311378 13.3236 0.27611 13.2301 0.260003 13.1324C0.243896 13.0348 0.247268 12.935 0.269926 12.8386C0.292583 12.7423 0.334078 12.6514 0.39202 12.5712C0.449961 12.491 0.523203 12.423 0.607526 12.3712L13.2513 4.58125V1C13.2513 0.801088 13.3303 0.610322 13.4709 0.46967C13.6116 0.329018 13.8024 0.25 14.0013 0.25H15.0013C16.691 0.249829 18.3639 0.585527 19.9227 1.23758C21.4816 1.88963 22.8952 2.84503 24.0816 4.04824C25.2679 5.25145 26.2033 6.67847 26.8333 8.24636C27.4632 9.81424 27.7753 11.4917 27.7513 13.1812ZM26.2513 13.16C26.2725 11.6692 25.9971 10.1891 25.4413 8.80566C24.8854 7.42222 24.0601 6.16308 23.0133 5.10141C21.9666 4.03975 20.7192 3.19674 19.3437 2.6214C17.9683 2.04605 16.4922 1.74985 15.0013 1.75H14.7513V5C14.7512 5.12814 14.7183 5.25413 14.6557 5.36595C14.5932 5.47777 14.503 5.57169 14.3938 5.63875L2.03753 13.2425L3.34628 15.335C3.59303 15.672 3.92913 15.9332 4.31658 16.0891C4.70403 16.2451 5.12738 16.2896 5.53878 16.2175C7.51628 15.8837 11.5913 15.195 15.1925 17.245C16.5506 17.1955 17.8366 16.6213 18.7801 15.6431C19.7235 14.6649 20.2509 13.359 20.2513 12C20.2513 11.8011 20.3303 11.6103 20.4709 11.4697C20.6116 11.329 20.8024 11.25 21.0013 11.25C21.2002 11.25 21.391 11.329 21.5316 11.4697C21.6723 11.6103 21.7513 11.8011 21.7513 12C21.7492 13.7218 21.0899 15.3778 19.9082 16.6299C18.7264 17.8821 17.1113 18.6359 15.3925 18.7375L11.7225 23.7837C12.8606 24.1174 14.0431 24.2747 15.2288 24.25C18.1426 24.1826 20.9173 22.9905 22.9719 20.9233C25.0265 18.8561 26.2017 16.0742 26.2513 13.16Z" fill="#233240"/>
</svg>
