<svg xmlns="http://www.w3.org/2000/svg" width="44" height="44" viewBox="0 0 44 44" fill="none">
  <rect x="0.5" y="0.5" width="43" height="43" rx="21.5" stroke="#F5F7FA"/>
  <path fill-rule="evenodd" clip-rule="evenodd" d="M17.4187 10.7909C15.4019 11.6048 12.481 15.1037 12.481 16.7066C12.481 17.1951 13.634 16.4909 15.0434 15.1406C16.4527 13.7902 19.252 12.0832 21.2651 11.3458C24.7926 10.0544 24.8248 10.0065 22.1592 10C20.6383 9.99634 18.5054 10.3521 17.4187 10.7909ZM28.5929 12.509C28.9349 15.3655 31.6245 19.6137 32.5232 18.715C32.737 18.5012 32.0337 17.4467 30.959 16.372C29.8843 15.2972 29.2501 14.0216 29.5497 13.5367C29.8483 13.0528 29.6732 11.9274 29.1588 11.0361C28.4224 9.76038 28.3026 10.0738 28.5929 12.509ZM22.8256 16.7895C22.9998 17.9574 23.94 18.7464 25.3945 18.9418C26.6573 19.1114 28.0841 19.6294 28.5652 20.094C29.0473 20.5576 29.852 20.9373 30.3543 20.9373C31.9471 20.9373 27.7624 18.2321 26.1226 18.2016C25.2608 18.185 24.104 17.4458 23.5538 16.5591C22.6385 15.0843 22.5758 15.1046 22.8256 16.7895ZM15.0102 19.9926C16.6546 20.3825 18.7285 21.2664 19.6189 21.9559C20.948 22.9854 20.9241 22.8426 19.4815 21.1521C18.3146 19.7843 16.7679 19.1252 14.8729 19.1879L12.0201 19.2828L15.0102 19.9926ZM12.951 23.7026C13.8331 25.4769 15.9955 28.7076 17.757 30.8829C21.2688 35.2169 21.9444 35.1321 24.7649 29.9952L26.4489 26.9286L24.1179 29.4634C22.8357 30.858 21.3877 31.9982 20.8992 31.9982C20.4116 31.9982 18.4529 29.821 16.5477 27.1591C11.9132 20.6857 11.032 19.8396 12.951 23.7026Z" fill="black"/>
</svg>
