<svg width="24" height="24" viewBox="0 0 24 24" fill="none" xmlns="http://www.w3.org/2000/svg">
<path d="M21 18.751H20.25V3.75098C20.25 3.55206 20.171 3.3613 20.0303 3.22065C19.8897 3.07999 19.6989 3.00098 19.5 3.00098H14.25C14.0511 3.00098 13.8603 3.07999 13.7197 3.22065C13.579 3.3613 13.5 3.55206 13.5 3.75098V7.50098H9C8.80109 7.50098 8.61032 7.57999 8.46967 7.72065C8.32902 7.8613 8.25 8.05206 8.25 8.25098V12.001H4.5C4.30109 12.001 4.11032 12.08 3.96967 12.2206C3.82902 12.3613 3.75 12.5521 3.75 12.751V18.751H3C2.80109 18.751 2.61032 18.83 2.46967 18.9706C2.32902 19.1113 2.25 19.3021 2.25 19.501C2.25 19.6999 2.32902 19.8907 2.46967 20.0313C2.61032 20.172 2.80109 20.251 3 20.251H21C21.1989 20.251 21.3897 20.172 21.5303 20.0313C21.671 19.8907 21.75 19.6999 21.75 19.501C21.75 19.3021 21.671 19.1113 21.5303 18.9706C21.3897 18.83 21.1989 18.751 21 18.751ZM15 4.50098H18.75V18.751H15V4.50098ZM9.75 9.00098H13.5V18.751H9.75V9.00098ZM5.25 13.501H8.25V18.751H5.25V13.501Z" fill="#808C96"/>
</svg>
