<svg width="21" height="20" viewBox="0 0 21 20" fill="none" xmlns="http://www.w3.org/2000/svg">
<g id="ChatCentered">
<path id="Vector" d="M17.125 3.125H3.375C3.04348 3.125 2.72554 3.2567 2.49112 3.49112C2.2567 3.72554 2.125 4.04348 2.125 4.375V14.375C2.125 14.7065 2.2567 15.0245 2.49112 15.2589C2.72554 15.4933 3.04348 15.625 3.375 15.625H8.09609L9.16484 17.4953C9.2742 17.6866 9.43216 17.8455 9.62272 17.9561C9.81329 18.0667 10.0297 18.1249 10.25 18.1249C10.4703 18.1249 10.6867 18.0667 10.8773 17.9561C11.0678 17.8455 11.2258 17.6866 11.3352 17.4953L12.4039 15.625H17.125C17.4565 15.625 17.7745 15.4933 18.0089 15.2589C18.2433 15.0245 18.375 14.7065 18.375 14.375V4.375C18.375 4.04348 18.2433 3.72554 18.0089 3.49112C17.7745 3.2567 17.4565 3.125 17.125 3.125ZM17.125 14.375H12.0414C11.9307 14.374 11.8218 14.4024 11.7257 14.4573C11.6296 14.5122 11.5499 14.5917 11.4945 14.6875L10.2445 16.875L8.99453 14.6875C8.9392 14.5917 8.85942 14.5122 8.76334 14.4573C8.66725 14.4024 8.55832 14.374 8.44766 14.375H3.375V4.375H17.125V14.375Z" fill="currentColor"/>
</g>
</svg>
