<svg xmlns="http://www.w3.org/2000/svg" width="100" height="100" viewBox="0 0 200 201" fill="none">
  <path d="M2.97949 100.5C2.97949 175.186 83.8294 221.865 148.509 184.521C178.528 167.19 197.019 135.162 197.019 100.5C197.019 25.8137 116.17 -20.8652 51.4895 16.478C21.4713 33.8089 2.97949 65.8378 2.97949 100.5Z" fill="#FDF1DA"/>
  <path d="M17.2524 59.2812L140.202 21.6543L167.078 109.475L44.129 147.102L17.2524 59.2812Z" fill="#F5B946"/>
  <path d="M17.2524 59.2812L140.202 21.6543L167.078 109.475L44.129 147.102L17.2524 59.2812Z" stroke="#2C3F50" stroke-width="2" stroke-linecap="round" stroke-linejoin="round"/>
  <path d="M17.2524 59.2812L140.202 21.6543L167.078 109.475L44.129 147.102L17.2524 59.2812Z" stroke="#2C3F50" stroke-width="2" stroke-linecap="round" stroke-linejoin="round"/>
  <path d="M67.6436 176.678C67.6436 181.579 100.804 184.643 127.333 182.192C139.645 181.055 147.229 178.953 147.229 176.678C147.229 171.777 114.068 168.714 87.54 171.164C75.2279 172.302 67.6436 174.403 67.6436 176.678Z" fill="#F5B946"/>
  <path d="M36.5898 60.1396H168.959V154.688H36.5898V60.1396Z" fill="white"/>
  <path d="M36.5898 74.1191H168.959V86.3437H36.5898V74.1191Z" fill="#F5B946" stroke="#2C3F50" stroke-width="2"/>
  <path d="M36.5898 74.1191H168.959V86.3437H36.5898V74.1191Z" stroke="#2C3F50" stroke-width="2" stroke-linecap="round" stroke-linejoin="round"/>
  <path d="M36.5898 60.1396H168.959V154.688H36.5898V60.1396Z" stroke="#2C3F50" stroke-width="2" stroke-linecap="round" stroke-linejoin="round"/>
  <path d="M81.9419 101.598C81.9346 105.028 85.6431 107.179 88.6173 105.471C90.0033 104.674 90.8565 103.196 90.8531 101.598C90.8604 98.1677 87.1519 96.0163 84.1779 97.7248C82.7917 98.5212 81.9385 99.999 81.9419 101.598Z" fill="#2C3F50"/>
  <path d="M115.05 101.598C115.043 105.028 118.751 107.179 121.725 105.471C123.111 104.674 123.965 103.196 123.961 101.598C123.968 98.1677 120.26 96.0163 117.286 97.7248C115.9 98.5212 115.046 99.999 115.05 101.598Z" fill="#2C3F50"/>
  <path d="M77.6052 111.969C67.127 110.485 59.625 121.559 67.9032 124.744C72.8948 126.663 76.4724 118.778 77.6052 111.969Z" fill="#F5B946" stroke="#2C3F50" stroke-width="2" stroke-linecap="round" stroke-linejoin="round"/>
  <path d="M73.562 103.215C70.1201 96.36 60.4255 96.4668 61.9487 102.712C62.868 106.477 69.0456 105.351 73.562 103.215Z" fill="#F5B946" stroke="#2C3F50" stroke-width="2" stroke-linecap="round" stroke-linejoin="round"/>
  <path d="M128.007 111.969C138.483 110.485 145.985 121.559 137.709 124.744C132.717 126.663 129.127 118.778 128.007 111.969Z" fill="#F5B946" stroke="#2C3F50" stroke-width="2" stroke-linecap="round" stroke-linejoin="round"/>
  <path d="M132.045 103.215C135.487 96.36 145.184 96.4668 143.661 102.712C142.742 106.477 136.564 105.351 132.045 103.215Z" fill="#F5B946" stroke="#2C3F50" stroke-width="2" stroke-linecap="round" stroke-linejoin="round"/>
  <path d="M88.5415 144.033C91.4747 138.848 96.8563 135.524 102.806 135.222C108.755 135.525 114.135 138.849 117.068 144.033C107.589 142.974 98.0208 142.974 88.5415 144.033Z" fill="white" stroke="#2C3F50" stroke-width="2" stroke-linecap="round" stroke-linejoin="round"/>
</svg>
