<svg width="25" height="24" viewBox="0 0 25 24" fill="none" xmlns="http://www.w3.org/2000/svg">
<g id="Frame">
<path id="Vector" d="M21.75 12.0018H9.395M5.034 12.0018H3.25M5.034 12.0018C5.034 11.4237 5.26368 10.8692 5.67251 10.4604C6.08134 10.0515 6.63583 9.82184 7.214 9.82184C7.79217 9.82184 8.34666 10.0515 8.75549 10.4604C9.16432 10.8692 9.394 11.4237 9.394 12.0018C9.394 12.58 9.16432 13.1345 8.75549 13.5433C8.34666 13.9522 7.79217 14.1818 7.214 14.1818C6.63583 14.1818 6.08134 13.9522 5.67251 13.5433C5.26368 13.1345 5.034 12.58 5.034 12.0018ZM21.75 18.6088H16.002M16.002 18.6088C16.002 19.1871 15.7718 19.7423 15.3628 20.1512C14.9539 20.5601 14.3993 20.7898 13.821 20.7898C13.2428 20.7898 12.6883 20.5592 12.2795 20.1503C11.8707 19.7415 11.641 19.187 11.641 18.6088M16.002 18.6088C16.002 18.0305 15.7718 17.4764 15.3628 17.0675C14.9539 16.6586 14.3993 16.4288 13.821 16.4288C13.2428 16.4288 12.6883 16.6585 12.2795 17.0674C11.8707 17.4762 11.641 18.0307 11.641 18.6088M11.641 18.6088H3.25M21.75 5.39484H18.645M14.284 5.39484H3.25M14.284 5.39484C14.284 4.81667 14.5137 4.26218 14.9225 3.85335C15.3313 3.44452 15.8858 3.21484 16.464 3.21484C16.7503 3.21484 17.0338 3.27123 17.2983 3.38079C17.5627 3.49034 17.8031 3.65092 18.0055 3.85335C18.2079 4.05578 18.3685 4.2961 18.4781 4.56059C18.5876 4.82508 18.644 5.10856 18.644 5.39484C18.644 5.68113 18.5876 5.9646 18.4781 6.22909C18.3685 6.49358 18.2079 6.7339 18.0055 6.93634C17.8031 7.13877 17.5627 7.29935 17.2983 7.4089C17.0338 7.51846 16.7503 7.57484 16.464 7.57484C15.8858 7.57484 15.3313 7.34517 14.9225 6.93634C14.5137 6.52751 14.284 5.97302 14.284 5.39484Z" stroke="currentColor" stroke-miterlimit="10" stroke-linecap="round"/>
</g>
</svg>
