<svg xmlns="http://www.w3.org/2000/svg" width="25" height="24" viewBox="0 0 25 24" fill="none">
  <path d="M19.1892 12.0994L14.3508 10.3181L12.5695 5.47594C12.464 5.18937 12.2732 4.94206 12.0227 4.76736C11.7723 4.59267 11.4743 4.499 11.1689 4.499C10.8635 4.499 10.5655 4.59267 10.3151 4.76736C10.0646 4.94206 9.87375 5.18937 9.76826 5.47594L7.98514 10.3125L3.14295 12.0938C2.85639 12.1992 2.60907 12.3901 2.43438 12.6405C2.25968 12.891 2.16602 13.189 2.16602 13.4944C2.16602 13.7997 2.25968 14.0978 2.43438 14.3482C2.60907 14.5987 2.85639 14.7895 3.14295 14.895L7.97858 16.6875L9.75983 21.5269C9.86531 21.8134 10.0562 22.0608 10.3066 22.2355C10.5571 22.4101 10.8551 22.5038 11.1605 22.5038C11.4658 22.5038 11.7638 22.4101 12.0143 22.2355C12.2647 22.0608 12.4556 21.8134 12.5611 21.5269L14.3423 16.6884L19.1845 14.9072C19.4711 14.8017 19.7184 14.6109 19.8931 14.3604C20.0678 14.1099 20.1615 13.8119 20.1615 13.5066C20.1615 13.2012 20.0678 12.9032 19.8931 12.6527C19.7184 12.4023 19.4711 12.2114 19.1845 12.1059L19.1892 12.0994ZM13.8276 15.2812C13.625 15.3556 13.4409 15.4732 13.2882 15.6259C13.1356 15.7786 13.018 15.9626 12.9436 16.1653L11.1623 20.9897L9.38483 16.1616C9.31038 15.96 9.19314 15.7769 9.04117 15.6249C8.88921 15.4729 8.70612 15.3557 8.50451 15.2812L3.68014 13.5L8.50451 11.7188C8.70612 11.6443 8.88921 11.5271 9.04117 11.3751C9.19314 11.2231 9.31038 11.04 9.38483 10.8384L11.1661 6.01406L12.9473 10.8384C13.0217 11.0411 13.1393 11.2252 13.292 11.3778C13.4447 11.5305 13.6287 11.6481 13.8314 11.7225L18.6558 13.5037L13.8276 15.2812ZM14.1661 3.75C14.1661 3.55109 14.2451 3.36032 14.3857 3.21967C14.5264 3.07902 14.7172 3 14.9161 3H16.4161V1.5C16.4161 1.30109 16.4951 1.11032 16.6357 0.96967C16.7764 0.829018 16.9672 0.75 17.1661 0.75C17.365 0.75 17.5558 0.829018 17.6964 0.96967C17.8371 1.11032 17.9161 1.30109 17.9161 1.5V3H19.4161C19.615 3 19.8058 3.07902 19.9464 3.21967C20.0871 3.36032 20.1661 3.55109 20.1661 3.75C20.1661 3.94891 20.0871 4.13968 19.9464 4.28033C19.8058 4.42098 19.615 4.5 19.4161 4.5H17.9161V6C17.9161 6.19891 17.8371 6.38968 17.6964 6.53033C17.5558 6.67098 17.365 6.75 17.1661 6.75C16.9672 6.75 16.7764 6.67098 16.6357 6.53033C16.4951 6.38968 16.4161 6.19891 16.4161 6V4.5H14.9161C14.7172 4.5 14.5264 4.42098 14.3857 4.28033C14.2451 4.13968 14.1661 3.94891 14.1661 3.75ZM23.9161 8.25C23.9161 8.44891 23.8371 8.63968 23.6964 8.78033C23.5558 8.92098 23.365 9 23.1661 9H22.4161V9.75C22.4161 9.94891 22.3371 10.1397 22.1964 10.2803C22.0558 10.421 21.865 10.5 21.6661 10.5C21.4672 10.5 21.2764 10.421 21.1357 10.2803C20.9951 10.1397 20.9161 9.94891 20.9161 9.75V9H20.1661C19.9672 9 19.7764 8.92098 19.6357 8.78033C19.4951 8.63968 19.4161 8.44891 19.4161 8.25C19.4161 8.05109 19.4951 7.86032 19.6357 7.71967C19.7764 7.57902 19.9672 7.5 20.1661 7.5H20.9161V6.75C20.9161 6.55109 20.9951 6.36032 21.1357 6.21967C21.2764 6.07902 21.4672 6 21.6661 6C21.865 6 22.0558 6.07902 22.1964 6.21967C22.3371 6.36032 22.4161 6.55109 22.4161 6.75V7.5H23.1661C23.365 7.5 23.5558 7.57902 23.6964 7.71967C23.8371 7.86032 23.9161 8.05109 23.9161 8.25Z" fill="#566573"/>
</svg>
