<svg width="20" height="20" viewBox="0 0 20 20" fill="none" xmlns="http://www.w3.org/2000/svg">
<path d="M14.0625 9.5625C14.0625 9.71168 14.0032 9.85476 13.8977 9.96025C13.7923 10.0657 13.6492 10.125 13.5 10.125H4.5C4.35082 10.125 4.20774 10.0657 4.10225 9.96025C3.99676 9.85476 3.9375 9.71168 3.9375 9.5625C3.9375 9.41332 3.99676 9.27024 4.10225 9.16475C4.20774 9.05926 4.35082 9 4.5 9H13.5C13.6492 9 13.7923 9.05926 13.8977 9.16475C14.0032 9.27024 14.0625 9.41332 14.0625 9.5625ZM16.3125 5.625H1.6875C1.53832 5.625 1.39524 5.68426 1.28975 5.78975C1.18426 5.89524 1.125 6.03832 1.125 6.1875C1.125 6.33668 1.18426 6.47976 1.28975 6.58525C1.39524 6.69074 1.53832 6.75 1.6875 6.75H16.3125C16.4617 6.75 16.6048 6.69074 16.7102 6.58525C16.8157 6.47976 16.875 6.33668 16.875 6.1875C16.875 6.03832 16.8157 5.89524 16.7102 5.78975C16.6048 5.68426 16.4617 5.625 16.3125 5.625ZM10.6875 12.375H7.3125C7.16332 12.375 7.02024 12.4343 6.91475 12.5398C6.80926 12.6452 6.75 12.7883 6.75 12.9375C6.75 13.0867 6.80926 13.2298 6.91475 13.3352C7.02024 13.4407 7.16332 13.5 7.3125 13.5H10.6875C10.8367 13.5 10.9798 13.4407 11.0852 13.3352C11.1907 13.2298 11.25 13.0867 11.25 12.9375C11.25 12.7883 11.1907 12.6452 11.0852 12.5398C10.9798 12.4343 10.8367 12.375 10.6875 12.375Z" fill="#808C96"/>
</svg>
