<svg width="14" height="14" viewBox="0 0 14 14" fill="none" xmlns="http://www.w3.org/2000/svg">
<path d="M13.6431 6.67741L10.8306 9.10429L11.6875 12.7337C11.7347 12.9307 11.7226 13.1373 11.6525 13.3274C11.5824 13.5175 11.4575 13.6826 11.2937 13.8018C11.1298 13.9209 10.9343 13.9889 10.7319 13.997C10.5294 14.0051 10.3291 13.9531 10.1562 13.8474L6.99996 11.9049L3.84184 13.8474C3.66898 13.9525 3.4689 14.004 3.2668 13.9956C3.06469 13.9872 2.8696 13.9191 2.70609 13.8001C2.54257 13.681 2.41795 13.5162 2.3479 13.3264C2.27786 13.1367 2.26553 12.9304 2.31246 12.7337L3.17246 9.10429L0.359961 6.67741C0.207022 6.54523 0.0964141 6.37092 0.0419501 6.17625C-0.0125139 5.98159 -0.00842004 5.77519 0.0537205 5.58283C0.115861 5.39048 0.233294 5.22069 0.391354 5.09468C0.549414 4.96867 0.741096 4.89201 0.942461 4.87429L4.62996 4.57679L6.05246 1.13429C6.12946 0.946674 6.26051 0.786193 6.42894 0.673249C6.59738 0.560306 6.7956 0.5 6.9984 0.5C7.2012 0.5 7.39942 0.560306 7.56785 0.673249C7.73629 0.786193 7.86734 0.946674 7.94434 1.13429L9.36621 4.57679L13.0537 4.87429C13.2555 4.89135 13.4477 4.96758 13.6064 5.09342C13.765 5.21925 13.883 5.38911 13.9455 5.5817C14.008 5.77429 14.0123 5.98104 13.9579 6.17607C13.9034 6.37109 13.7926 6.54571 13.6393 6.67804L13.6431 6.67741Z" fill="#F5B946"/>
</svg>
