<svg width="34" height="34" viewBox="0 0 34 34" fill="none" xmlns="http://www.w3.org/2000/svg">
<g id="Group">
<path id="Shape" fill-rule="evenodd" clip-rule="evenodd" d="M33.32 17.3865C33.32 16.1811 33.2118 15.022 33.0109 13.9092H17V20.4852H26.1491C25.755 22.6102 24.5573 24.4106 22.7568 25.6161V29.8815H28.2509C31.4655 26.922 33.32 22.5638 33.32 17.3865Z" fill="#4285F4"/>
<path id="Shape_2" fill-rule="evenodd" clip-rule="evenodd" d="M16.9995 34C21.5895 34 25.4377 32.4777 28.2504 29.8814L22.7563 25.6159C21.234 26.6359 19.2867 27.2386 16.9995 27.2386C12.5717 27.2386 8.82399 24.2482 7.48717 20.23H1.80762V24.6345C4.60489 30.1905 10.354 34 16.9995 34Z" fill="#34A853"/>
<path id="Shape_3" fill-rule="evenodd" clip-rule="evenodd" d="M7.48725 20.2303C7.14725 19.2103 6.95407 18.1207 6.95407 17.0003C6.95407 15.8798 7.14725 14.7903 7.48725 13.7703V9.36572H1.8077C0.656331 11.6607 -0.000488281 14.2571 -0.000488281 17.0003C-0.000488281 19.7435 0.656331 22.3398 1.8077 24.6348L7.48725 20.2303Z" fill="#FBBC05"/>
<path id="Shape_4" fill-rule="evenodd" clip-rule="evenodd" d="M16.9995 6.76162C19.4954 6.76162 21.7363 7.61935 23.4981 9.30389L28.374 4.42798C25.4299 1.68479 21.5817 0.000244141 16.9995 0.000244141C10.354 0.000244141 4.60489 3.8098 1.80762 9.36571L7.48717 13.7703C8.82399 9.75208 12.5717 6.76162 16.9995 6.76162Z" fill="#EA4335"/>
</g>
</svg>
