<svg width="32" height="32" viewBox="0 0 32 32" fill="none" xmlns="http://www.w3.org/2000/svg">
<path d="M4.66722 10.6668C4.66748 9.40265 4.99452 8.16007 5.61658 7.05961C6.23864 5.95914 7.13461 5.03817 8.21754 4.38605C9.30047 3.73394 10.5336 3.37283 11.7972 3.33778C13.0608 3.30273 14.3121 3.59492 15.4295 4.18599C16.5469 4.77707 17.4925 5.64696 18.1747 6.71124C18.8568 7.77553 19.2522 8.99807 19.3225 10.2602C19.3929 11.5224 19.1357 12.7813 18.5761 13.9148C18.0165 15.0483 17.1734 16.0178 16.1286 16.7294C18.3786 17.5547 20.3301 19.0344 21.7321 20.9781C23.134 22.9218 23.9222 25.2406 23.9952 27.6361C23.9921 27.8944 23.8893 28.1415 23.7083 28.3257C23.5274 28.51 23.2822 28.6172 23.024 28.6249C22.7658 28.6327 22.5146 28.5404 22.3229 28.3673C22.1312 28.1942 22.0138 27.9537 21.9952 27.6961C21.9158 25.098 20.8279 22.633 18.9621 20.8233C17.0963 19.0136 14.5992 18.0016 11.9999 18.0016C9.40062 18.0016 6.90348 19.0136 5.03766 20.8233C3.17184 22.633 2.08395 25.098 2.00455 27.6961C1.99121 27.9572 1.87612 28.2027 1.68397 28.38C1.49181 28.5573 1.23786 28.6523 0.976519 28.6446C0.715179 28.6369 0.467237 28.5272 0.28581 28.339C0.104382 28.1507 0.0038995 27.8989 0.00588835 27.6374C0.0786235 25.2417 0.866697 22.9226 2.26867 20.9787C3.67064 19.0347 5.62234 17.5548 7.87255 16.7294C6.88433 16.0569 6.07561 15.1529 5.51692 14.0962C4.95822 13.0395 4.66651 11.8621 4.66722 10.6668ZM12.0006 5.33343C10.5861 5.33343 9.22951 5.89534 8.22932 6.89553C7.22912 7.89572 6.66722 9.25228 6.66722 10.6668C6.66722 12.0813 7.22912 13.4378 8.22932 14.438C9.22951 15.4382 10.5861 16.0001 12.0006 16.0001C13.415 16.0001 14.7716 15.4382 15.7718 14.438C16.772 13.4378 17.3339 12.0813 17.3339 10.6668C17.3339 9.25228 16.772 7.89572 15.7718 6.89553C14.7716 5.89534 13.415 5.33343 12.0006 5.33343ZM23.0539 10.6668C22.8566 10.6668 22.6646 10.6801 22.4752 10.7068C22.343 10.7304 22.2074 10.7272 22.0765 10.6974C21.9456 10.6675 21.822 10.6115 21.7132 10.5329C21.6043 10.4542 21.5125 10.3544 21.443 10.2395C21.3736 10.1245 21.328 9.99678 21.309 9.86384C21.29 9.7309 21.298 9.5955 21.3325 9.4657C21.367 9.33591 21.4272 9.2144 21.5097 9.1084C21.5921 9.00241 21.6951 8.91411 21.8124 8.84877C21.9297 8.78343 22.059 8.74239 22.1926 8.7281C23.5187 8.53637 24.8709 8.79103 26.0364 9.452C27.2019 10.113 28.1145 11.1427 28.6307 12.3792C29.1468 13.6157 29.2372 14.9887 28.8875 16.2821C28.5379 17.5756 27.7681 18.7161 26.6992 19.5241C28.2704 20.2276 29.6044 21.3708 30.5404 22.8156C31.4763 24.2605 31.9742 25.9453 31.9739 27.6668C31.9739 27.932 31.8685 28.1863 31.681 28.3739C31.4935 28.5614 31.2391 28.6668 30.9739 28.6668C30.7087 28.6668 30.4543 28.5614 30.2668 28.3739C30.0792 28.1863 29.9739 27.932 29.9739 27.6668C29.9737 26.179 29.4943 24.7308 28.6067 23.5367C27.7191 22.3427 26.4705 21.4663 25.0459 21.0374L24.3339 20.8241V18.5894L24.8806 18.3108C25.6909 17.9003 26.3393 17.2287 26.721 16.4044C27.1027 15.5801 27.1955 14.6513 26.9843 13.7678C26.7732 12.8843 26.2705 12.0977 25.5573 11.5351C24.8442 10.9724 23.9623 10.6665 23.0539 10.6668Z" fill="#233240"/>
</svg>
