<svg width="21" height="20" viewBox="0 0 21 20" fill="none" xmlns="http://www.w3.org/2000/svg">
<g id="Heart">
<path id="Vector" d="M14.1562 3.125C12.543 3.125 11.1305 3.81875 10.25 4.99141C9.36953 3.81875 7.95703 3.125 6.34375 3.125C5.05955 3.12645 3.82837 3.63723 2.9203 4.5453C2.01223 5.45337 1.50145 6.68455 1.5 7.96875C1.5 13.4375 9.60859 17.8641 9.95391 18.0469C10.0449 18.0958 10.1467 18.1215 10.25 18.1215C10.3533 18.1215 10.4551 18.0958 10.5461 18.0469C10.8914 17.8641 19 13.4375 19 7.96875C18.9986 6.68455 18.4878 5.45337 17.5797 4.5453C16.6716 3.63723 15.4404 3.12645 14.1562 3.125ZM10.25 16.7813C8.82344 15.95 2.75 12.1633 2.75 7.96875C2.75124 7.01601 3.13026 6.10265 3.80396 5.42896C4.47765 4.75526 5.39101 4.37624 6.34375 4.375C7.86328 4.375 9.13906 5.18438 9.67188 6.48438C9.71896 6.59901 9.79907 6.69705 9.90201 6.76605C10.0049 6.83505 10.1261 6.8719 10.25 6.8719C10.3739 6.8719 10.4951 6.83505 10.598 6.76605C10.7009 6.69705 10.781 6.59901 10.8281 6.48438C11.3609 5.18203 12.6367 4.375 14.1562 4.375C15.109 4.37624 16.0224 4.75526 16.696 5.42896C17.3697 6.10265 17.7488 7.01601 17.75 7.96875C17.75 12.157 11.675 15.9492 10.25 16.7813Z" fill="currentColor"/>
</g>
</svg>
