<svg width="21" height="21" viewBox="0 0 21 21" fill="none" xmlns="http://www.w3.org/2000/svg">
<g id="Heart">
<path id="Vector" d="M19.666 8.52344C19.666 13.9922 11.5574 18.4187 11.2121 18.6016C11.1211 18.6505 11.0194 18.6762 10.916 18.6762C10.8127 18.6762 10.7109 18.6505 10.6199 18.6016C10.2746 18.4187 2.16602 13.9922 2.16602 8.52344C2.16746 7.23924 2.67825 6.00805 3.58632 5.09999C4.49438 4.19192 5.72557 3.68113 7.00977 3.67969C8.62305 3.67969 10.0355 4.37344 10.916 5.54609C11.7965 4.37344 13.209 3.67969 14.8223 3.67969C16.1065 3.68113 17.3377 4.19192 18.2457 5.09999C19.1538 6.00805 19.6646 7.23924 19.666 8.52344Z" fill="currentColor"/>
</g>
</svg>
