<svg xmlns="http://www.w3.org/2000/svg" width="24" height="24" viewBox="0 0 24 24" fill="none">
  <path d="M22.5007 17.9991H21.7507V12.24L21.8904 12.435C21.9456 12.52 22.0175 12.5929 22.1016 12.6493C22.1858 12.7057 22.2805 12.7445 22.38 12.7633C22.4796 12.7821 22.5819 12.7805 22.6808 12.7587C22.7798 12.7369 22.8732 12.6953 22.9556 12.6363C23.038 12.5774 23.1076 12.5023 23.1602 12.4158C23.2128 12.3292 23.2474 12.2328 23.2617 12.1325C23.2761 12.0323 23.2699 11.9301 23.2437 11.8322C23.2175 11.7344 23.1717 11.6428 23.1092 11.5632L19.3592 6.31316C19.3078 6.24204 19.2443 6.18048 19.1717 6.13129L12.8445 1.75879L12.8351 1.75222C12.5886 1.58777 12.2989 1.5 12.0026 1.5C11.7063 1.5 11.4166 1.58777 11.1701 1.75222L11.1607 1.75879L4.82416 6.13222C4.75151 6.18141 4.68805 6.24297 4.63666 6.3141L0.886665 11.5641C0.824101 11.6438 0.778329 11.7353 0.752111 11.8332C0.725894 11.931 0.719774 12.0332 0.734122 12.1335C0.748469 12.2338 0.782986 12.3301 0.83559 12.4167C0.888194 12.5033 0.957794 12.5783 1.04019 12.6372C1.12259 12.6962 1.21607 12.7378 1.315 12.7597C1.41393 12.7815 1.51626 12.783 1.61581 12.7642C1.71536 12.7454 1.81006 12.7066 1.89421 12.6502C1.97836 12.5938 2.05021 12.5209 2.10541 12.436L2.25073 12.24V17.9991H1.50073C1.30181 17.9991 1.11105 18.0781 0.970397 18.2188C0.829745 18.3594 0.750727 18.5502 0.750727 18.7491C0.750727 18.948 0.829745 19.1388 0.970397 19.2794C1.11105 19.4201 1.30181 19.4991 1.50073 19.4991H22.5007C22.6996 19.4991 22.8904 19.4201 23.0311 19.2794C23.1717 19.1388 23.2507 18.948 23.2507 18.7491C23.2507 18.5502 23.1717 18.3594 23.0311 18.2188C22.8904 18.0781 22.6996 17.9991 22.5007 17.9991ZM3.75073 10.14L5.7851 7.29191L12.0007 2.9991L18.2164 7.29097L20.2507 10.14V17.9991H18.0007V11.2491C18.0007 11.0502 17.9217 10.8594 17.7811 10.7188C17.6404 10.5781 17.4496 10.4991 17.2507 10.4991H6.75073C6.55181 10.4991 6.36105 10.5781 6.2204 10.7188C6.07975 10.8594 6.00073 11.0502 6.00073 11.2491V17.9991H3.75073V10.14ZM12.0007 14.0775L9.09448 11.9991H14.907L12.0007 14.0775ZM16.5007 12.7069V17.2922L13.2907 14.9991L16.5007 12.7069ZM10.7107 14.9991L7.50073 17.2922V12.7069L10.7107 14.9991ZM12.0007 15.9207L14.907 17.9991H9.09448L12.0007 15.9207ZM9.75073 8.2491C9.75073 8.05019 9.82975 7.85942 9.9704 7.71877C10.111 7.57812 10.3018 7.4991 10.5007 7.4991H13.5007C13.6996 7.4991 13.8904 7.57812 14.0311 7.71877C14.1717 7.85942 14.2507 8.05019 14.2507 8.2491C14.2507 8.44801 14.1717 8.63878 14.0311 8.77943C13.8904 8.92008 13.6996 8.9991 13.5007 8.9991H10.5007C10.3018 8.9991 10.111 8.92008 9.9704 8.77943C9.82975 8.63878 9.75073 8.44801 9.75073 8.2491Z" fill="#2C3F50"/>
</svg>
