<svg width="20" height="20" viewBox="0 0 20 20" fill="none" xmlns="http://www.w3.org/2000/svg">
<g id="HouseSimple">
<path id="Vector" d="M17.0961 8.1057L10.8461 2.20883C10.843 2.20616 10.8402 2.20329 10.8375 2.20023C10.6074 1.99096 10.3075 1.875 9.99648 1.875C9.68545 1.875 9.38558 1.99096 9.15547 2.20023L9.14688 2.20883L2.90391 8.1057C2.77656 8.2228 2.67491 8.36506 2.60538 8.52348C2.53586 8.68189 2.49997 8.85301 2.5 9.02602V16.2487C2.5 16.5802 2.6317 16.8981 2.86612 17.1326C3.10054 17.367 3.41848 17.4987 3.75 17.4987H16.25C16.5815 17.4987 16.8995 17.367 17.1339 17.1326C17.3683 16.8981 17.5 16.5802 17.5 16.2487V9.02602C17.5 8.85301 17.4641 8.68189 17.3946 8.52348C17.3251 8.36506 17.2234 8.2228 17.0961 8.1057ZM16.25 16.2487H3.75V9.02602L3.75859 9.0182L10 3.12367L16.2422 9.01664L16.2508 9.02445L16.25 16.2487Z" fill="currentColor"/>
</g>
</svg>
