<svg width="24" height="24" viewBox="0 0 24 24" fill="none" xmlns="http://www.w3.org/2000/svg">
<path d="M7.5 6.00098C7.5 5.80206 7.57902 5.6113 7.71967 5.47065C7.86032 5.32999 8.05109 5.25098 8.25 5.25098H20.25C20.4489 5.25098 20.6397 5.32999 20.7803 5.47065C20.921 5.6113 21 5.80206 21 6.00098C21 6.19989 20.921 6.39065 20.7803 6.53131C20.6397 6.67196 20.4489 6.75098 20.25 6.75098H8.25C8.05109 6.75098 7.86032 6.67196 7.71967 6.53131C7.57902 6.39065 7.5 6.19989 7.5 6.00098ZM20.25 11.251H8.25C8.05109 11.251 7.86032 11.33 7.71967 11.4706C7.57902 11.6113 7.5 11.8021 7.5 12.001C7.5 12.1999 7.57902 12.3907 7.71967 12.5313C7.86032 12.672 8.05109 12.751 8.25 12.751H20.25C20.4489 12.751 20.6397 12.672 20.7803 12.5313C20.921 12.3907 21 12.1999 21 12.001C21 11.8021 20.921 11.6113 20.7803 11.4706C20.6397 11.33 20.4489 11.251 20.25 11.251ZM20.25 17.251H8.25C8.05109 17.251 7.86032 17.33 7.71967 17.4706C7.57902 17.6113 7.5 17.8021 7.5 18.001C7.5 18.1999 7.57902 18.3907 7.71967 18.5313C7.86032 18.672 8.05109 18.751 8.25 18.751H20.25C20.4489 18.751 20.6397 18.672 20.7803 18.5313C20.921 18.3907 21 18.1999 21 18.001C21 17.8021 20.921 17.6113 20.7803 17.4706C20.6397 17.33 20.4489 17.251 20.25 17.251ZM4.125 4.87598C3.9025 4.87598 3.68499 4.94196 3.49998 5.06557C3.31498 5.18919 3.17078 5.36489 3.08564 5.57046C3.00049 5.77602 2.97821 6.00222 3.02162 6.22045C3.06503 6.43868 3.17217 6.63914 3.32951 6.79647C3.48684 6.95381 3.6873 7.06095 3.90552 7.10436C4.12375 7.14777 4.34995 7.12549 4.55552 7.04034C4.76109 6.95519 4.93679 6.811 5.0604 6.62599C5.18402 6.44099 5.25 6.22348 5.25 6.00098C5.25 5.70261 5.13147 5.41646 4.9205 5.20548C4.70952 4.9945 4.42337 4.87598 4.125 4.87598ZM4.125 10.876C3.9025 10.876 3.68499 10.942 3.49998 11.0656C3.31498 11.1892 3.17078 11.3649 3.08564 11.5705C3.00049 11.776 2.97821 12.0022 3.02162 12.2205C3.06503 12.4387 3.17217 12.6391 3.32951 12.7965C3.48684 12.9538 3.6873 13.061 3.90552 13.1044C4.12375 13.1478 4.34995 13.1255 4.55552 13.0403C4.76109 12.9552 4.93679 12.811 5.0604 12.626C5.18402 12.441 5.25 12.2235 5.25 12.001C5.25 11.7026 5.13147 11.4165 4.9205 11.2055C4.70952 10.9945 4.42337 10.876 4.125 10.876ZM4.125 16.876C3.9025 16.876 3.68499 16.942 3.49998 17.0656C3.31498 17.1892 3.17078 17.3649 3.08564 17.5705C3.00049 17.776 2.97821 18.0022 3.02162 18.2205C3.06503 18.4387 3.17217 18.6391 3.32951 18.7965C3.48684 18.9538 3.6873 19.061 3.90552 19.1044C4.12375 19.1478 4.34995 19.1255 4.55552 19.0403C4.76109 18.9552 4.93679 18.811 5.0604 18.626C5.18402 18.441 5.25 18.2235 5.25 18.001C5.25 17.7026 5.13147 17.4165 4.9205 17.2055C4.70952 16.9945 4.42337 16.876 4.125 16.876Z" fill="#808C96"/>
</svg>
