<svg width="20" height="19" viewBox="0 0 20 19" fill="none" xmlns="http://www.w3.org/2000/svg">
<path d="M18.25 0.75H1.75C1.35218 0.75 0.970644 0.908035 0.68934 1.18934C0.408035 1.47064 0.25 1.85218 0.25 2.25V14.25C0.25 14.6478 0.408035 15.0294 0.68934 15.3107C0.970644 15.592 1.35218 15.75 1.75 15.75H7.41531L8.69781 17.9944C8.82903 18.2239 9.01859 18.4146 9.24726 18.5473C9.47594 18.68 9.73562 18.7499 10 18.7499C10.2644 18.7499 10.5241 18.68 10.7527 18.5473C10.9814 18.4146 11.171 18.2239 11.3022 17.9944L12.5847 15.75H18.25C18.6478 15.75 19.0294 15.592 19.3107 15.3107C19.592 15.0294 19.75 14.6478 19.75 14.25V2.25C19.75 1.85218 19.592 1.47064 19.3107 1.18934C19.0294 0.908035 18.6478 0.75 18.25 0.75ZM18.25 14.25H12.1497C12.0169 14.2488 11.8862 14.2829 11.7709 14.3488C11.6556 14.4147 11.5598 14.51 11.4934 14.625L9.99344 17.25L8.49344 14.625C8.42704 14.51 8.33131 14.4147 8.21601 14.3488C8.10071 14.2829 7.96998 14.2488 7.83719 14.25H1.75V2.25H18.25V14.25Z" fill="#808C96"/>
</svg>
