<svg width="140" height="140" viewBox="0 0 140 140" fill="none" xmlns="http://www.w3.org/2000/svg">
<circle opacity="0.6" cx="70" cy="70" r="70" fill="#DBE9FD"/>
<circle cx="70" cy="70" r="50" fill="#DBE9FD"/>
<path d="M101.768 54.2701L61.7682 94.2701C61.536 94.5026 61.2603 94.687 60.9568 94.8128C60.6533 94.9386 60.328 95.0034 59.9994 95.0034C59.6709 95.0034 59.3456 94.9386 59.0421 94.8128C58.7386 94.687 58.4629 94.5026 58.2307 94.2701L40.7307 76.7701C40.2616 76.301 39.998 75.6648 39.998 75.0014C39.998 74.338 40.2616 73.7017 40.7307 73.2326C41.1998 72.7635 41.836 72.5 42.4994 72.5C43.1628 72.5 43.7991 72.7635 44.2682 73.2326L59.9994 88.967L98.2307 50.7326C98.6998 50.2635 99.336 50 99.9994 50C100.663 50 101.299 50.2635 101.768 50.7326C102.237 51.2017 102.501 51.838 102.501 52.5014C102.501 53.1648 102.237 53.801 101.768 54.2701Z" fill="#4A8FF7"/>
</svg>
