<svg width="33" height="32" viewBox="0 0 33 32" fill="none" xmlns="http://www.w3.org/2000/svg">
<path d="M25.8333 14.666H7.16667C5.69391 14.666 4.5 15.8599 4.5 17.3327V26.666C4.5 28.1388 5.69391 29.3327 7.16667 29.3327H25.8333C27.3061 29.3327 28.5 28.1388 28.5 26.666V17.3327C28.5 15.8599 27.3061 14.666 25.8333 14.666Z" stroke="#2C3F50" stroke-width="2.66667" stroke-linecap="round" stroke-linejoin="round"/>
<path d="M9.83337 14.666V9.33268C9.83337 7.56457 10.5358 5.86888 11.786 4.61864C13.0362 3.36839 14.7319 2.66602 16.5 2.66602C18.2682 2.66602 19.9638 3.36839 21.2141 4.61864C22.4643 5.86888 23.1667 7.56457 23.1667 9.33268V14.666" stroke="#2C3F50" stroke-width="2.66667" stroke-linecap="round" stroke-linejoin="round"/>
</svg>