<svg xmlns="http://www.w3.org/2000/svg" width="24" height="25" viewBox="0 0 24 25" fill="none">
  <path d="M20.25 14.7575V20.7491C20.25 20.948 20.171 21.1388 20.0303 21.2794C19.8897 21.4201 19.6989 21.4991 19.5 21.4991H4.5C4.30109 21.4991 4.11032 21.4201 3.96967 21.2794C3.82902 21.1388 3.75 20.948 3.75 20.7491V14.7575C3.75 14.5586 3.82902 14.3678 3.96967 14.2272C4.11032 14.0865 4.30109 14.0075 4.5 14.0075C4.69891 14.0075 4.88968 14.0865 5.03033 14.2272C5.17098 14.3678 5.25 14.5586 5.25 14.7575V19.9991H18.75V14.7575C18.75 14.5586 18.829 14.3678 18.9697 14.2272C19.1103 14.0865 19.3011 14.0075 19.5 14.0075C19.6989 14.0075 19.8897 14.0865 20.0303 14.2272C20.171 14.3678 20.25 14.5586 20.25 14.7575ZM8.25 17.7575H15.75C15.9489 17.7575 16.1397 17.6785 16.2803 17.5378C16.421 17.3972 16.5 17.2064 16.5 17.0075C16.5 16.8086 16.421 16.6178 16.2803 16.4772C16.1397 16.3365 15.9489 16.2575 15.75 16.2575H8.25C8.05109 16.2575 7.86032 16.3365 7.71967 16.4772C7.57902 16.6178 7.5 16.8086 7.5 17.0075C7.5 17.2064 7.57902 17.3972 7.71967 17.5378C7.86032 17.6785 8.05109 17.7575 8.25 17.7575ZM8.7075 12.7888L15.9516 14.7275C16.0151 14.7449 16.0807 14.7537 16.1466 14.7538C16.3275 14.7523 16.5018 14.6855 16.6373 14.5657C16.7729 14.4459 16.8605 14.2811 16.8842 14.1018C16.9078 13.9224 16.8658 13.7405 16.7659 13.5897C16.666 13.4388 16.515 13.3292 16.3406 13.2809L9.09375 11.3375C8.99589 11.3014 8.89158 11.286 8.78746 11.2925C8.68334 11.2989 8.58171 11.327 8.48907 11.375C8.39643 11.423 8.31482 11.4897 8.24944 11.571C8.18406 11.6523 8.13636 11.7463 8.10938 11.8471C8.0824 11.9479 8.07675 12.0532 8.09277 12.1562C8.10879 12.2593 8.14614 12.3579 8.20243 12.4457C8.25872 12.5336 8.33271 12.6087 8.41968 12.6663C8.50664 12.7239 8.60467 12.7627 8.7075 12.7803V12.7888ZM10.4372 8.10783L16.9322 11.8578C17.0175 11.9071 17.1117 11.9391 17.2094 11.9519C17.307 11.9648 17.4063 11.9583 17.5014 11.9328C17.5966 11.9073 17.6858 11.8632 17.7639 11.8033C17.8421 11.7433 17.9076 11.6685 17.9569 11.5831C18.0558 11.411 18.0824 11.2067 18.0309 11.015C17.9794 10.8232 17.854 10.6597 17.6822 10.5603L11.1872 6.80564C11.1018 6.75137 11.0064 6.71494 10.9066 6.69852C10.8067 6.6821 10.7046 6.68604 10.6064 6.71011C10.5082 6.73417 10.4158 6.77786 10.3349 6.83855C10.2539 6.89924 10.1861 6.97567 10.1355 7.06324C10.0849 7.15081 10.0525 7.24772 10.0403 7.34814C10.0281 7.44855 10.0363 7.55039 10.0645 7.64754C10.0927 7.74469 10.1403 7.83513 10.2043 7.91342C10.2683 7.99172 10.3476 8.05625 10.4372 8.10314V8.10783ZM18.6244 9.32657C18.6941 9.39638 18.7768 9.45178 18.8679 9.4896C18.959 9.52743 19.0566 9.54694 19.1553 9.54703C19.2539 9.54712 19.3516 9.52778 19.4428 9.49011C19.5339 9.45245 19.6168 9.39719 19.6866 9.32751C19.7564 9.25783 19.8118 9.17508 19.8496 9.08399C19.8874 8.9929 19.9069 8.89525 19.907 8.79661C19.9071 8.69798 19.8878 8.6003 19.8501 8.50914C19.8124 8.41798 19.7572 8.33513 19.6875 8.26532L14.3841 2.96845C14.2424 2.83361 14.0536 2.75944 13.8581 2.76177C13.6625 2.7641 13.4756 2.84274 13.3371 2.98092C13.1987 3.1191 13.1197 3.30589 13.1171 3.50146C13.1144 3.69703 13.1882 3.88591 13.3228 4.02782L18.6244 9.32657Z" fill="#808C96"/>
</svg>
