<svg width="17" height="17" viewBox="0 0 17 17" fill="none" xmlns="http://www.w3.org/2000/svg">
<path d="M16.5407 15.5607C15.3508 13.5037 13.5172 12.0287 11.3774 11.3295C12.4358 10.6994 13.2582 9.73922 13.7182 8.5965C14.1781 7.45377 14.2503 6.19166 13.9235 5.00397C13.5968 3.81628 12.8892 2.76868 11.9094 2.02207C10.9296 1.27545 9.73185 0.871094 8.50003 0.871094C7.26821 0.871094 6.07044 1.27545 5.09067 2.02207C4.1109 2.76868 3.40331 3.81628 3.07654 5.00397C2.74978 6.19166 2.82193 7.45377 3.28189 8.5965C3.74186 9.73922 4.56422 10.6994 5.62268 11.3295C3.48284 12.0279 1.64925 13.5029 0.459403 15.5607C0.41577 15.6319 0.386828 15.711 0.374285 15.7935C0.361743 15.8761 0.365854 15.9602 0.386376 16.0411C0.406897 16.122 0.443414 16.198 0.493772 16.2646C0.54413 16.3311 0.607308 16.3869 0.679579 16.4287C0.75185 16.4704 0.831751 16.4973 0.914566 16.5076C0.997381 16.518 1.08143 16.5117 1.16176 16.489C1.24209 16.4664 1.31708 16.4279 1.38228 16.3758C1.44749 16.3237 1.50161 16.2591 1.54143 16.1857C3.01331 13.642 5.61487 12.1232 8.50003 12.1232C11.3852 12.1232 13.9867 13.642 15.4586 16.1857C15.4985 16.2591 15.5526 16.3237 15.6178 16.3758C15.683 16.4279 15.758 16.4664 15.8383 16.489C15.9186 16.5117 16.0027 16.518 16.0855 16.5076C16.1683 16.4973 16.2482 16.4704 16.3205 16.4287C16.3927 16.3869 16.4559 16.3311 16.5063 16.2646C16.5566 16.198 16.5932 16.122 16.6137 16.0411C16.6342 15.9602 16.6383 15.8761 16.6258 15.7935C16.6132 15.711 16.5843 15.6319 16.5407 15.5607ZM4.12503 6.49822C4.12503 5.63293 4.38162 4.78706 4.86235 4.0676C5.34308 3.34813 6.02636 2.78738 6.82579 2.45625C7.62522 2.12511 8.50488 2.03847 9.35355 2.20728C10.2022 2.37609 10.9818 2.79277 11.5936 3.40463C12.2055 4.01648 12.6222 4.79603 12.791 5.6447C12.9598 6.49337 12.8731 7.37303 12.542 8.17246C12.2109 8.97189 11.6501 9.65517 10.9306 10.1359C10.2112 10.6166 9.36532 10.8732 8.50003 10.8732C7.34009 10.872 6.22801 10.4106 5.40781 9.59044C4.5876 8.77024 4.12627 7.65816 4.12503 6.49822Z" fill="#ABB2B9"/>
</svg>