<svg xmlns="http://www.w3.org/2000/svg" width="12" height="12" viewBox="0 0 12 12" fill="none">
  <g clip-path="url(#clip0_8510_26387)">
    <path d="M7.14855 7.3368C7.70025 6.90305 8.10302 6.30811 8.3008 5.63476C8.49859 4.96141 8.48155 4.24316 8.25206 3.57995C8.02257 2.91674 7.59204 2.34156 7.02039 1.93446C6.44874 1.52737 5.7644 1.30859 5.06261 1.30859C4.36082 1.30859 3.67648 1.52737 3.10483 1.93446C2.53317 2.34156 2.10265 2.91674 1.87316 3.57995C1.64367 4.24316 1.62663 4.96141 1.82441 5.63476C2.0222 6.30811 2.42497 6.90305 2.97667 7.3368C2.08943 7.69858 1.3054 8.27409 0.694327 9.01211C0.598351 9.12636 0.551693 9.27406 0.564615 9.42271C0.577538 9.57136 0.648983 9.70879 0.763233 9.80477C0.877483 9.90074 1.02518 9.9474 1.17383 9.93448C1.32248 9.92155 1.45991 9.85011 1.55589 9.73586C2.19761 8.9718 3.32823 8.06148 5.06261 8.06148C6.79698 8.06148 7.92761 8.9718 8.56933 9.73586C8.6653 9.85011 8.80273 9.92155 8.95138 9.93448C9.10004 9.9474 9.24773 9.90074 9.36198 9.80477C9.47623 9.70879 9.54768 9.57136 9.5606 9.42271C9.57352 9.27406 9.52687 9.12636 9.43089 9.01211C8.81997 8.27393 8.03589 7.69839 7.14855 7.3368ZM2.81261 4.68648C2.81261 4.24148 2.94457 3.80646 3.1918 3.43645C3.43903 3.06644 3.79044 2.77805 4.20157 2.60776C4.6127 2.43746 5.0651 2.3929 5.50156 2.47972C5.93802 2.56653 6.33893 2.78083 6.6536 3.09549C6.96827 3.41016 7.18256 3.81107 7.26938 4.24753C7.35619 4.68399 7.31164 5.13639 7.14134 5.54752C6.97104 5.95866 6.68265 6.31006 6.31264 6.55729C5.94263 6.80452 5.50762 6.93648 5.06261 6.93648C4.46606 6.93586 3.89413 6.69861 3.4723 6.27679C3.05048 5.85497 2.81323 5.28303 2.81261 4.68648ZM11.8356 6.39695L10.3356 7.89695C10.2833 7.94939 10.2212 7.991 10.1529 8.01939C10.0845 8.04778 10.0112 8.0624 9.93714 8.0624C9.86311 8.0624 9.7898 8.04778 9.72143 8.01939C9.65306 7.991 9.59096 7.94939 9.5387 7.89695L8.7887 7.14695C8.68303 7.04128 8.62366 6.89796 8.62366 6.74852C8.62366 6.59907 8.68303 6.45575 8.7887 6.35008C8.89437 6.24441 9.0377 6.18504 9.18714 6.18504C9.33658 6.18504 9.47991 6.24441 9.58558 6.35008L9.93761 6.70211L11.0396 5.59961C11.092 5.54729 11.1541 5.50578 11.2224 5.47746C11.2908 5.44915 11.3641 5.43457 11.4381 5.43457C11.5121 5.43457 11.5853 5.44915 11.6537 5.47746C11.7221 5.50578 11.7842 5.54729 11.8365 5.59961C11.8888 5.65193 11.9303 5.71405 11.9587 5.78241C11.987 5.85078 12.0016 5.92405 12.0016 5.99805C12.0016 6.07204 11.987 6.14532 11.9587 6.21368C11.9303 6.28204 11.8888 6.34416 11.8365 6.39648L11.8356 6.39695Z" fill="#2C3F50"/>
  </g>
  <defs>
    <clipPath id="clip0_8510_26387">
      <rect width="12" height="12" fill="white"/>
    </clipPath>
  </defs>
</svg>
