<svg xmlns="http://www.w3.org/2000/svg" width="19" height="19" viewBox="0 0 19 19" fill="none">
  <path d="M17.7593 1.24083C17.6021 1.08375 17.4059 0.971407 17.1909 0.91538C16.9758 0.859353 16.7497 0.861667 16.5359 0.922083H16.5242L1.52884 5.47208C1.2854 5.54224 1.06903 5.68472 0.908388 5.88063C0.747752 6.07654 0.650437 6.31664 0.629342 6.56911C0.608246 6.82158 0.664365 7.0745 0.790262 7.29436C0.916158 7.51421 1.10589 7.69062 1.33431 7.80021L7.96869 11.0315L11.1952 17.6619C11.2956 17.8761 11.4552 18.0571 11.6551 18.1834C11.855 18.3098 12.0869 18.3764 12.3234 18.3752C12.3593 18.3752 12.3952 18.3736 12.4312 18.3705C12.6835 18.3501 12.9234 18.253 13.1189 18.0923C13.3144 17.9315 13.4561 17.7149 13.5249 17.4713L18.0718 2.47599C18.0718 2.47208 18.0718 2.46818 18.0718 2.46427C18.133 2.25096 18.1363 2.0252 18.0814 1.81019C18.0265 1.59518 17.9153 1.39866 17.7593 1.24083ZM12.3304 17.1135L12.3265 17.1244V17.119L9.19681 10.6893L12.9468 6.93927C13.0591 6.82111 13.1207 6.66376 13.1186 6.50079C13.1166 6.33781 13.0509 6.1821 12.9356 6.06685C12.8204 5.95159 12.6647 5.88593 12.5017 5.88384C12.3387 5.88175 12.1814 5.94341 12.0632 6.05568L8.31322 9.80568L1.88119 6.67599H1.87572H1.88665L16.8749 2.12521L12.3304 17.1135Z" fill="#F5B946"/>
</svg>
