<svg width="22" height="20" viewBox="0 0 22 20" fill="none" xmlns="http://www.w3.org/2000/svg">
<path d="M12.7495 7.375C12.7495 7.5975 12.6835 7.81501 12.5599 8.00002C12.4363 8.18502 12.2606 8.32922 12.055 8.41436C11.8495 8.49951 11.6233 8.52179 11.405 8.47838C11.1868 8.43498 10.9864 8.32783 10.829 8.1705C10.6717 8.01316 10.5645 7.81271 10.5211 7.59448C10.4777 7.37625 10.5 7.15005 10.5852 6.94448C10.6703 6.73891 10.8145 6.56321 10.9995 6.4396C11.1845 6.31598 11.402 6.25 11.6245 6.25C11.9229 6.25 12.209 6.36853 12.42 6.5795C12.631 6.79048 12.7495 7.07663 12.7495 7.375ZM21.7495 10.1388C21.7073 12.6646 20.689 15.0761 18.9081 16.8679C17.1273 18.6596 14.722 19.6925 12.1964 19.75H11.993C9.60192 19.7668 7.28916 18.8986 5.49983 17.3125C5.35065 17.1798 5.26027 16.9934 5.24858 16.7941C5.24279 16.6954 5.25649 16.5966 5.28891 16.5032C5.32132 16.4098 5.37181 16.3237 5.43749 16.2498C5.50317 16.176 5.58276 16.1158 5.67171 16.0727C5.76066 16.0295 5.85723 16.0044 5.9559 15.9986C6.15519 15.9869 6.35096 16.0549 6.50014 16.1875C7.06521 16.6931 7.69978 17.1152 8.38452 17.4409L10.8745 14.0162C8.73889 13.0947 6.42421 13.4866 5.11827 13.7078C4.56555 13.8033 3.99713 13.7411 3.47814 13.5283C2.95915 13.3156 2.5106 12.9609 2.18389 12.505L2.15577 12.4647L0.863895 10.4022C0.811505 10.3183 0.77622 10.2249 0.760069 10.1273C0.743919 10.0298 0.747223 9.92999 0.76979 9.8337C0.792357 9.73742 0.833743 9.64656 0.891565 9.56633C0.949387 9.4861 1.0225 9.41811 1.10671 9.36625L10.4995 3.58094V1C10.4995 0.801088 10.5785 0.610322 10.7192 0.46967C10.8598 0.329018 11.0506 0.25 11.2495 0.25H11.9995C13.2917 0.249869 14.571 0.506584 15.763 1.00522C16.9551 1.50386 18.0361 2.23447 18.9433 3.15459C19.8505 4.07471 20.5658 5.16598 21.0476 6.36496C21.5293 7.56395 21.7679 8.84673 21.7495 10.1388ZM20.2495 10.1181C20.2652 9.02482 20.0633 7.93931 19.6558 6.9247C19.2482 5.91009 18.643 4.98662 17.8753 4.20798C17.1077 3.42934 16.1929 2.81107 15.1842 2.3891C14.1755 1.96713 13.0929 1.74989 11.9995 1.75V4C11.9994 4.12806 11.9666 4.25396 11.904 4.36572C11.8415 4.47748 11.7514 4.57137 11.6423 4.63844L2.53639 10.2428L3.41389 11.6491C3.5794 11.8719 3.80377 12.0442 4.06179 12.1465C4.31981 12.2489 4.60126 12.2772 4.87452 12.2284C6.37452 11.9753 9.44671 11.4559 12.1936 12.9953C13.1528 12.9442 14.0561 12.5275 14.7175 11.8309C15.3789 11.1342 15.7482 10.2106 15.7495 9.25C15.7495 9.05109 15.8285 8.86032 15.9692 8.71967C16.1098 8.57902 16.3006 8.5 16.4995 8.5C16.6984 8.5 16.8892 8.57902 17.0299 8.71967C17.1705 8.86032 17.2495 9.05109 17.2495 9.25C17.2477 10.5736 16.7466 11.8478 15.8464 12.818C14.9461 13.7883 13.713 14.3833 12.3933 14.4841L9.85171 17.9791C10.6072 18.175 11.3861 18.2661 12.1664 18.25C14.3029 18.2002 16.3374 17.326 17.844 15.8103C19.3506 14.2946 20.2126 12.2549 20.2495 10.1181Z" fill="#808C96"/>
</svg>
