<svg width="24" height="24" viewBox="0 0 24 24" fill="none" xmlns="http://www.w3.org/2000/svg">
<path fill-rule="evenodd" clip-rule="evenodd" d="M12.3307 0.0503069C16.103 0.0607565 16.9181 0.0764308 17.3988 0.144353C17.7175 0.186151 18.1877 0.269747 18.4437 0.32722C18.6997 0.384692 19.1386 0.504862 19.4103 0.598908C19.682 0.687729 20.1313 0.875821 20.403 1.01689C20.6747 1.15796 21.0613 1.3983 21.2651 1.54982C21.4689 1.70134 21.7719 1.9678 21.9443 2.14544C22.1167 2.32308 22.3884 2.65224 22.5452 2.87691C22.7019 3.10157 22.937 3.52478 23.0729 3.81214C23.2087 4.09951 23.3916 4.56974 23.4752 4.8571C23.564 5.14446 23.679 5.67216 23.7417 6.03267C23.7991 6.39318 23.8723 7.00448 23.9036 7.39111C23.9297 7.77775 23.9559 9.84676 23.9559 11.9889C23.9559 14.1311 23.9297 16.2001 23.9036 16.5867C23.8723 16.9733 23.7991 17.5846 23.7417 17.9452C23.679 18.3057 23.564 18.8334 23.4752 19.1207C23.3916 19.4081 23.2087 19.8783 23.0729 20.1657C22.937 20.453 22.7019 20.8763 22.5452 21.1009C22.3884 21.3256 22.1167 21.6547 21.9443 21.8324C21.7719 22.01 21.4689 22.2765 21.2651 22.4332C21.0613 22.5848 20.6172 22.846 20.2724 23.0184C19.9276 23.1856 19.4103 23.3894 19.123 23.4782C18.8356 23.5618 18.3079 23.6767 17.9474 23.7394C17.5869 23.7969 16.9756 23.8701 16.5889 23.9014C16.2023 23.9275 14.1333 23.9536 11.9911 23.9536C9.84898 23.9536 7.77997 23.9275 7.39333 23.9014C7.0067 23.8701 6.3954 23.7969 6.03489 23.7394C5.67438 23.6767 5.14668 23.5618 4.85932 23.473C4.57195 23.3894 4.10172 23.2065 3.81436 23.0707C3.527 22.9348 3.10379 22.6997 2.87913 22.543C2.64924 22.3862 2.29918 22.0884 2.09541 21.8846C1.89164 21.6809 1.59383 21.3308 1.43709 21.1009C1.28035 20.8763 1.04523 20.453 0.909387 20.1657C0.773543 19.8783 0.590676 19.4081 0.50708 19.1207C0.418258 18.8334 0.303313 18.3161 0.245841 17.9713C0.183144 17.6264 0.109997 16.9681 0.078648 16.5083C0.0368498 15.9441 0.0264003 14.2983 0.0420746 11.4142C0.0577489 7.91359 0.078648 7.0515 0.14657 6.58127C0.188368 6.26256 0.271965 5.79233 0.329437 5.53632C0.38691 5.27508 0.50708 4.84142 0.601125 4.56974C0.689947 4.29805 0.878039 3.84872 1.01911 3.57703C1.16018 3.30534 1.40052 2.91348 1.55203 2.71494C1.70355 2.5164 1.97002 2.20814 2.14243 2.04095C2.31485 1.86853 2.62311 1.61774 2.82165 1.47667C3.0202 1.33038 3.39638 1.11094 3.65762 0.980317C3.91886 0.849697 4.36296 0.66683 4.65033 0.572784C4.93769 0.478738 5.41837 0.353344 5.7214 0.290647C6.02444 0.233174 6.50512 0.160027 6.79248 0.128679C7.07985 0.102555 7.42991 0.0659812 7.5762 0.0555317C7.71727 0.0450821 9.85943 0.0450821 12.3307 0.0503069ZM6.32225 1.87898C6.03489 1.93123 5.60123 2.02527 5.35567 2.09842C5.11011 2.16634 4.74437 2.30218 4.54583 2.39623C4.34729 2.49028 4.03903 2.66269 3.86661 2.77764C3.69419 2.89781 3.40683 3.14337 3.22919 3.32624C3.05677 3.50388 2.81121 3.80692 2.69626 3.99501C2.57609 4.1831 2.40367 4.51226 2.31485 4.72648C2.22603 4.9407 2.10064 5.33255 2.03794 5.58857C1.97002 5.84458 1.87075 6.34094 1.8185 6.68577C1.7349 7.2605 1.72445 7.72028 1.72445 11.9889C1.72445 16.2576 1.7349 16.7173 1.8185 17.2921C1.87075 17.6369 1.97002 18.1332 2.03794 18.3893C2.10064 18.6453 2.23648 19.0476 2.33053 19.2775C2.42457 19.5074 2.61266 19.8574 2.74851 20.0612C2.87913 20.265 3.16126 20.5889 3.37548 20.7927C3.59492 20.9964 3.89796 21.2368 4.0547 21.3256C4.21144 21.4196 4.51448 21.5712 4.7287 21.66C4.94291 21.7488 5.33477 21.8742 5.59079 21.9421C5.8468 22.01 6.34315 22.1093 6.68799 22.1616C7.26271 22.2451 7.72249 22.2556 11.9911 22.2556C16.2598 22.2556 16.7196 22.2451 17.2943 22.1616C17.6391 22.1093 18.1355 22.01 18.3915 21.9421C18.6475 21.8794 19.0394 21.754 19.2536 21.6652C19.4678 21.5764 19.7969 21.404 19.985 21.2838C20.1731 21.1688 20.4762 20.9233 20.659 20.7509C20.8419 20.5732 21.0979 20.265 21.2338 20.0612C21.3696 19.8574 21.5577 19.5074 21.6517 19.2775C21.7458 19.0476 21.8816 18.6453 21.9443 18.3893C22.0123 18.1332 22.1115 17.6369 22.1638 17.2921C22.2474 16.7173 22.2578 16.2576 22.2578 11.9889C22.2578 7.72028 22.2474 7.2605 22.1638 6.68577C22.1115 6.34094 22.0123 5.84458 21.9443 5.58857C21.8816 5.33255 21.7458 4.93025 21.6517 4.70036C21.5577 4.47047 21.3696 4.11518 21.2338 3.91664C21.0979 3.7181 20.8419 3.40461 20.659 3.22697C20.4762 3.05455 20.1731 2.80899 19.985 2.69404C19.7969 2.57387 19.4678 2.40146 19.2536 2.31263C19.0394 2.22381 18.6475 2.09842 18.3915 2.03572C18.1355 1.9678 17.6652 1.87375 17.3465 1.82151C16.8397 1.74313 16.265 1.72746 12.3046 1.71701C9.84898 1.71179 7.61277 1.72746 7.34108 1.74836C7.0694 1.77448 6.60962 1.83195 6.32225 1.87898Z" fill="#808C96"/>
<path d="M13.715 0.0104495C12.7537 0.0208991 11.1915 0.0208991 10.2406 0.0104495C9.28965 0.00522477 10.0786 0 11.9909 0C13.9031 0 14.6764 0.00522477 13.715 0.0104495Z" fill="black" fill-opacity="0.3"/>
<path d="M0.0104495 13.6889C0.00522477 14.6346 0 13.8718 0 11.9909C0 10.1099 0.00522477 9.33145 0.0104495 10.2667C0.0208991 11.2019 0.0208991 12.7432 0.0104495 13.6889Z" fill="black" fill-opacity="0.3"/>
<path d="M23.9922 13.6889C23.9869 14.6346 23.9817 13.8718 23.9817 11.9909C23.9817 10.1099 23.9869 9.33145 23.9922 10.2667C24.0026 11.2019 24.0026 12.7432 23.9922 13.6889Z" fill="black" fill-opacity="0.3"/>
<path d="M13.715 23.9922C12.7537 24.0026 11.1915 24.0026 10.2406 23.9922C9.28965 23.9869 10.0786 23.9817 11.9909 23.9817C13.9031 23.9817 14.6764 23.9869 13.715 23.9922Z" fill="black" fill-opacity="0.3"/>
<path d="M13.715 1.68232C12.7536 1.69277 11.1914 1.69277 10.2405 1.68232C9.2896 1.6771 10.0785 1.67188 11.9908 1.67188C13.9031 1.67188 14.6763 1.6771 13.715 1.68232Z" fill="black" fill-opacity="0.7"/>
<path d="M1.68232 13.6889C1.6771 14.6345 1.67188 13.8717 1.67188 11.9908C1.67188 10.1099 1.6771 9.33139 1.68232 10.2666C1.69277 11.2019 1.69277 12.7432 1.68232 13.6889Z" fill="black" fill-opacity="0.7"/>
<path d="M22.3202 13.6889C22.315 14.6345 22.3097 13.8717 22.3097 11.9908C22.3097 10.1099 22.315 9.33139 22.3202 10.2666C22.3306 11.2019 22.3306 12.7432 22.3202 13.6889Z" fill="black" fill-opacity="0.7"/>
<path d="M13.715 22.3202C12.7536 22.3306 11.1914 22.3306 10.2405 22.3202C9.2896 22.315 10.0785 22.3097 11.9908 22.3097C13.9031 22.3097 14.6763 22.315 13.715 22.3202Z" fill="black" fill-opacity="0.7"/>
<path d="M16.6358 8.63125C16.6828 8.58423 16.8134 8.50586 16.9284 8.46406C17.0433 8.42226 17.2053 8.40136 17.2941 8.42226C17.3777 8.43794 17.5135 8.48496 17.5919 8.52153C17.6755 8.56333 17.7852 8.65738 17.8427 8.74097C17.9054 8.81934 17.9629 8.96564 17.9785 9.06491C17.9994 9.16418 17.9994 9.32092 17.9785 9.40452C17.9629 9.49856 17.4247 10.2405 16.6358 11.2593C15.9148 12.1945 15.2146 13.0671 15.0788 13.2029C14.9429 13.344 14.7026 13.5164 14.525 13.5948C14.2585 13.7202 14.1436 13.7411 13.7413 13.7411C13.3128 13.7411 13.2397 13.7254 12.9314 13.5739C12.7433 13.4798 12.132 13.0357 11.573 12.5916C11.0139 12.1423 10.5019 11.7557 10.434 11.7295C10.3608 11.693 10.2772 11.6982 10.1989 11.7348C10.1362 11.7661 9.47261 12.5916 8.72547 13.5687C7.97832 14.5457 7.32 15.3764 7.26253 15.4182C7.20506 15.4548 7.07444 15.5123 6.97517 15.5436C6.84977 15.5802 6.7296 15.575 6.58331 15.5384C6.46837 15.5071 6.30117 15.4026 6.21235 15.3137C6.10786 15.2145 6.02948 15.0734 6.00859 14.9428C5.98769 14.8278 5.98769 14.6606 6.00336 14.577C6.02426 14.483 6.59376 13.6941 7.4245 12.6178C8.18732 11.625 8.89789 10.7264 9.00238 10.6167C9.10688 10.5069 9.31064 10.3607 9.45694 10.2927C9.598 10.2196 9.84879 10.136 10.0055 10.1099C10.2093 10.0681 10.3869 10.0681 10.6064 10.1099C10.7788 10.136 11.0348 10.2196 11.1811 10.2927C11.3222 10.3659 11.9283 10.81 12.5239 11.2854C13.1926 11.8184 13.6577 12.1475 13.7256 12.1475C13.7935 12.1475 13.8823 12.1214 13.9293 12.0848C13.9764 12.0483 14.5824 11.275 15.2826 10.3711C15.9775 9.46722 16.5888 8.6835 16.6358 8.63125Z" fill="#808C96"/>
</svg>
