<svg width="55" height="23" viewBox="0 0 55 23" fill="none" xmlns="http://www.w3.org/2000/svg">
<path d="M10.7479 4.82739C9.41143 4.82739 8.33331 5.63599 7.63702 5.63599C6.90704 5.63599 5.92999 4.87231 4.77325 4.87231C2.57207 4.87231 0.337212 6.70288 0.337212 10.1282C0.337212 12.2732 1.16827 14.5305 2.19024 16.0017C3.05499 17.2258 3.82989 18.2366 4.93047 18.2366C6.01983 18.2366 6.50274 17.5178 7.86163 17.5178C9.23174 17.5178 9.5462 18.2141 10.7479 18.2141C11.9495 18.2141 12.7469 17.1248 13.4993 16.0466C14.3304 14.8 14.6898 13.5872 14.701 13.531C14.6336 13.5085 12.3426 12.5764 12.3426 9.94849C12.3426 7.67993 14.1395 6.66919 14.2405 6.59058C13.0613 4.87231 11.2532 4.82739 10.7479 4.82739ZM10.1302 3.37866C10.6692 2.71606 11.0511 1.81763 11.0511 0.907959C11.0511 0.784424 11.0398 0.660889 11.0174 0.559814C10.1414 0.593506 9.06329 1.1438 8.42315 1.89624C7.92901 2.46899 7.45733 3.37866 7.45733 4.28833C7.45733 4.4231 7.47979 4.56909 7.49102 4.61401C7.54717 4.62524 7.63702 4.63647 7.72686 4.63647C8.52422 4.63647 9.53497 4.09741 10.1302 3.37866ZM19.1155 1.82886V18.0344H22.013V12.7224H25.5281C28.8074 12.7224 31.0984 10.5212 31.0984 7.30933C31.0984 4.04126 28.886 1.82886 25.6516 1.82886H19.1155ZM22.013 4.25464H24.888C26.9768 4.25464 28.156 5.32153 28.156 7.30933C28.156 9.24097 26.9431 10.3191 24.8767 10.3191H22.013V4.25464ZM36.5349 16.0466C35.2995 16.0466 34.4123 15.429 34.4123 14.3958C34.4123 13.3962 35.1423 12.8347 36.7033 12.7336L39.4773 12.554V13.531C39.4773 14.9573 38.2195 16.0466 36.5349 16.0466ZM35.7151 18.2366C37.321 18.2366 38.6687 17.5403 39.3537 16.3499H39.5447V18.0344H42.2287V9.64526C42.2287 7.03979 40.4543 5.50122 37.2986 5.50122C34.3786 5.50122 32.3459 6.88257 32.1213 9.05005H34.7492C35.0075 8.21899 35.8835 7.76978 37.1638 7.76978C38.6687 7.76978 39.4773 8.4436 39.4773 9.64526V10.6785L36.3103 10.8694C33.323 11.0491 31.6496 12.3293 31.6496 14.553C31.6496 16.7991 33.3454 18.2366 35.7151 18.2366ZM45.3293 22.4929C48.0808 22.4929 49.3947 21.4822 50.4392 18.4275L54.8752 5.74829H51.9328L49.069 15.3391H48.8781L46.0031 5.74829H42.9484L47.3395 18.0906L47.1935 18.6296C46.8342 19.7639 46.1716 20.2131 44.9924 20.2131C44.8015 20.2131 44.3859 20.2019 44.2287 20.1682V22.448C44.4084 22.4817 45.1608 22.4929 45.3293 22.4929Z" fill="white"/>
</svg>
