<svg width="48" height="48" viewBox="0 0 48 48" fill="none" xmlns="http://www.w3.org/2000/svg">
<rect width="48" height="48" rx="24" fill="#561931"/>
<path d="M20 26C19.7167 26 19.4793 25.904 19.288 25.712C19.0967 25.52 19.0007 25.2827 19 25C18.9993 24.7173 19.0953 24.48 19.288 24.288C19.4807 24.096 19.718 24 20 24C20.282 24 20.5197 24.096 20.713 24.288C20.9063 24.48 21.002 24.7173 21 25C20.998 25.2827 20.902 25.5203 20.712 25.713C20.522 25.9057 20.2847 26.0013 20 26ZM24 26C23.7167 26 23.4793 25.904 23.288 25.712C23.0967 25.52 23.0007 25.2827 23 25C22.9993 24.7173 23.0953 24.48 23.288 24.288C23.4807 24.096 23.718 24 24 24C24.282 24 24.5197 24.096 24.713 24.288C24.9063 24.48 25.002 24.7173 25 25C24.998 25.2827 24.902 25.5203 24.712 25.713C24.522 25.9057 24.2847 26.0013 24 26ZM28 26C27.7167 26 27.4793 25.904 27.288 25.712C27.0967 25.52 27.0007 25.2827 27 25C26.9993 24.7173 27.0953 24.48 27.288 24.288C27.4807 24.096 27.718 24 28 24C28.282 24 28.5197 24.096 28.713 24.288C28.9063 24.48 29.002 24.7173 29 25C28.998 25.2827 28.902 25.5203 28.712 25.713C28.522 25.9057 28.2847 26.0013 28 26ZM17 34C16.45 34 15.9793 33.8043 15.588 33.413C15.1967 33.0217 15.0007 32.5507 15 32V18C15 17.45 15.196 16.9793 15.588 16.588C15.98 16.1967 16.4507 16.0007 17 16H18V14H20V16H28V14H30V16H31C31.55 16 32.021 16.196 32.413 16.588C32.805 16.98 33.0007 17.4507 33 18V32C33 32.55 32.8043 33.021 32.413 33.413C32.0217 33.805 31.5507 34.0007 31 34H17ZM17 32H31V22H17V32ZM17 20H31V18H17V20Z" fill="#F9F6F1"/>
</svg>
