<svg width="24" height="16" viewBox="0 0 24 16" fill="none" xmlns="http://www.w3.org/2000/svg">
<path d="M2.28711 14.6754L2.44291 15.9966C3.71569 14.7453 7.17342 13.459 11.9994 13.459C16.8251 13.459 20.2832 14.7453 21.5558 15.9968L21.7115 14.6754C19.775 13.2803 16.1522 12.3409 11.9994 12.3409C7.84639 12.3409 4.22377 13.2803 2.28711 14.6754Z" fill="#FFB300"/>
<path d="M20.5969 12.0675C20.2238 12.0675 19.9215 11.7641 19.9215 11.3897C19.9215 11.0153 20.2238 10.7119 20.5969 10.7119C20.9699 10.7119 21.2722 11.0153 21.2722 11.3897C21.2722 11.7641 20.9699 12.0675 20.5969 12.0675ZM16.5384 10.8407C16.1657 10.8407 15.8632 10.5373 15.8632 10.1629C15.8632 9.78853 16.1657 9.48514 16.5384 9.48514C16.9115 9.48514 17.214 9.78853 17.214 10.1629C17.214 10.5373 16.9115 10.8407 16.5384 10.8407ZM11.9986 10.3282C11.6255 10.3282 11.3232 10.0248 11.3232 9.65044C11.3232 9.27605 11.6255 8.97267 11.9986 8.97267C12.3717 8.97267 12.674 9.27605 12.674 9.65044C12.674 10.0248 12.3717 10.3282 11.9986 10.3282ZM7.45862 10.8407C7.08555 10.8407 6.78323 10.5373 6.78323 10.1629C6.78323 9.78853 7.08555 9.48514 7.45862 9.48514C7.83169 9.48514 8.13401 9.78853 8.13401 10.1629C8.13401 10.5373 7.83169 10.8407 7.45862 10.8407ZM3.40016 12.0675C3.02746 12.0675 2.72495 11.7641 2.72495 11.3897C2.72495 11.0153 3.02746 10.7119 3.40016 10.7119C3.77323 10.7119 4.07574 11.0153 4.07574 11.3897C4.07574 11.7641 3.77323 12.0675 3.40016 12.0675ZM22.8147 5.42503C22.4368 5.42503 22.1305 5.73251 22.1305 6.11174C22.1305 6.36463 22.2682 6.58322 22.4709 6.7023L18.3545 10.9588L18.2864 4.88721C18.2901 4.88739 18.2938 4.88833 18.2977 4.88833C18.6756 4.88833 18.982 4.58084 18.982 4.20161C18.982 3.82237 18.6756 3.51489 18.2977 3.51489C17.9198 3.51489 17.6134 3.82237 17.6134 4.20161C17.6134 4.50555 17.8116 4.7603 18.0842 4.85068L14.2604 9.73597L12.2398 4.05084C12.3533 3.46681 12.4992 2.7937 12.6615 2.235C13.5212 2.13549 14.1431 1.88111 14.1431 1.88111C14.1431 1.88111 13.5074 1.62041 12.6328 1.52331C12.2504 0.834547 11.9986 0.00154209 11.9986 0.00154209C11.9986 0.00154209 11.7468 0.834547 11.3644 1.52331C10.4896 1.62041 9.85414 1.88111 9.85414 1.88111C9.85414 1.88111 10.4759 2.13549 11.3355 2.235C11.4978 2.7937 11.6437 3.46699 11.7572 4.05084L9.73678 9.73597L5.91304 4.85068C6.18547 4.7603 6.3836 4.50555 6.3836 4.20161C6.3836 3.82237 6.0772 3.51489 5.6993 3.51489C5.32141 3.51489 5.01519 3.82237 5.01519 4.20161C5.01519 4.58084 5.32141 4.88833 5.6993 4.88833C5.70339 4.88833 5.70692 4.88739 5.71082 4.88721L5.64267 10.9588L1.52627 6.7023C1.72887 6.58322 1.86684 6.36463 1.86684 6.11174C1.86684 5.73251 1.56025 5.42503 1.18254 5.42503C0.804639 5.42503 0.498047 5.73251 0.498047 6.11174C0.498047 6.49098 0.804639 6.79846 1.18254 6.79846C1.24233 6.79846 1.29971 6.78821 1.35524 6.77368L2.21447 14.0652C4.30804 12.6785 7.87385 11.7827 11.9986 11.7827C16.1232 11.7827 19.689 12.6785 21.7829 14.0652L22.6422 6.77368C22.6975 6.78821 22.7547 6.79846 22.8147 6.79846C23.1926 6.79846 23.499 6.49098 23.499 6.11174C23.499 5.73251 23.1926 5.42503 22.8147 5.42503Z" fill="#FFB300"/>
</svg>
