<svg width="32" height="32" viewBox="0 0 32 32" fill="none" xmlns="http://www.w3.org/2000/svg">
<path d="M31.3706 16.4824C27.3892 14.6115 21.129 14.4714 16.7942 16.0515C20.9877 14.1315 25.3119 9.63634 26.7921 5.5231C22.6411 6.99111 18.112 11.2796 16.176 15.4384C17.7728 11.1394 17.628 4.931 15.7415 0.982422C13.8549 4.931 13.7136 11.1394 15.3069 15.4384C13.371 11.2796 8.83834 6.99111 4.69082 5.5231C6.17107 9.63985 10.4952 14.1315 14.6887 16.0515C10.3539 14.4678 4.09379 14.6115 0.112305 16.4824C4.09379 18.3534 10.3539 18.4935 14.6887 16.9134C10.4952 18.8333 6.17107 23.3285 4.69082 27.4417C8.84187 25.9737 13.371 21.6853 15.3069 17.5265C13.7101 21.8254 13.8549 28.0338 15.7415 31.9824C17.628 28.0338 17.7693 21.8254 16.176 17.5265C18.112 21.6853 22.6446 25.9737 26.7921 27.4417C25.3119 23.325 20.9877 18.8333 16.7942 16.9134C21.129 18.497 27.3892 18.3534 31.3706 16.4824Z" fill="#561931"/>
</svg>
