<svg width="20" height="18" viewBox="0 0 20 18" fill="none" xmlns="http://www.w3.org/2000/svg">
<path d="M9.99997 17.5133C9.90699 17.5134 9.81557 17.4895 9.73446 17.4441C8.08303 16.4768 6.53312 15.3458 5.10813 14.0682C1.98394 11.2564 0.399902 8.45433 0.399902 5.73968C0.400224 4.61611 0.760703 3.52222 1.42843 2.61858C2.09616 1.71494 3.03597 1.04914 4.10991 0.7189C5.18386 0.38866 6.33539 0.411374 7.39548 0.783708C8.45557 1.15604 9.36839 1.85839 9.99997 2.78765C10.6315 1.85839 11.5444 1.15604 12.6045 0.783708C13.6645 0.411374 14.8161 0.38866 15.89 0.7189C16.964 1.04914 17.9038 1.71494 18.5715 2.61858C19.2392 3.52222 19.5997 4.61611 19.6 5.73968C19.6 8.45433 18.016 11.2564 14.8918 14.0682C13.4668 15.3458 11.9169 16.4768 10.2655 17.4441C10.1844 17.4895 10.0929 17.5134 9.99997 17.5133ZM5.65277 1.57362C4.54824 1.57487 3.48931 2.01419 2.7083 2.79521C1.92728 3.57623 1.48795 4.63516 1.4867 5.73968C1.4867 10.9315 8.53153 15.4536 9.99997 16.3394C11.4684 15.4536 18.5132 10.9315 18.5132 5.73968C18.513 4.77677 18.1794 3.84363 17.5689 3.09893C16.9585 2.35423 16.109 1.84393 15.1648 1.65479C14.2207 1.46565 13.2402 1.60935 12.39 2.06145C11.5398 2.51356 10.8724 3.24616 10.5014 4.1347C10.46 4.2336 10.3904 4.31807 10.3012 4.37748C10.2119 4.43689 10.1072 4.46859 9.99997 4.46859C9.89278 4.46859 9.78799 4.43689 9.69877 4.37748C9.60956 4.31807 9.5399 4.2336 9.49858 4.1347C9.18273 3.3753 8.64875 2.72663 7.96418 2.27076C7.27962 1.81488 6.47523 1.57227 5.65277 1.57362Z" fill="#566573"/>
</svg>
