<svg width="220" height="50" viewBox="0 0 220 50" fill="none" xmlns="http://www.w3.org/2000/svg">
<g clip-path="url(#clip0_2050_58426)">
<path d="M26.4664 3.87511C16.4509 4.38138 7.28315 5.72938 0.314879 19.7469C0.227817 19.9221 -0.0333232 19.8342 0.003541 19.6421C0.864807 15.1319 2.62915 -3.16395 26.4951 3.64045C26.6278 3.67819 26.6138 3.8676 26.4664 3.87511Z" fill="#A37B7B"/>
<path d="M29.5371 4.86105C29.5371 4.86105 30.7137 5.42858 31.7689 6.3507C31.7689 6.3507 34.0586 3.94939 33.6018 1.69094C33.5472 1.41978 33.1868 1.24449 32.8351 1.94623C32.4155 2.78223 29.5371 4.86105 29.5371 4.86105Z" fill="#A37B7B"/>
<path d="M32.293 6.83938L33.4227 5.84339C33.4921 5.78329 33.5776 5.74242 33.6687 5.73554C33.8677 5.72069 34.2152 5.84375 34.5352 6.36656C34.9711 7.07852 35.7153 8.27332 35.3283 11.3242C35.3171 11.4115 35.1989 11.4295 35.1657 11.348C34.8482 10.5745 34.404 9.01255 32.293 6.83938Z" fill="#A37B7B"/>
<path d="M27.5088 4.09308C27.5088 4.09308 29.3002 0.655918 30.5363 0.711607C31.1043 0.737399 30.7334 1.06205 30.5913 1.19009C30.2724 1.47699 30.3563 1.88815 30.2801 2.49307C30.1383 3.62088 29.1667 4.59863 28.9327 4.57878C28.9327 4.57878 28.1877 4.26264 27.5088 4.09308Z" fill="#A37B7B"/>
<path d="M30.5511 6.2709C31.9611 8.14734 34.6786 12.0007 35.8526 14.4026C35.8526 14.4026 36.2533 15.4467 37.6932 16.1775C39.0508 17.0117 40.1818 18.0713 39.977 19.5136C39.9397 19.7748 39.6916 19.7905 39.6092 19.6703C38.8724 18.5947 38.4825 17.9574 36.8739 17.2933C36.1228 16.9831 34.2166 15.8119 33.9462 14.1057C33.7798 13.0565 31.1994 8.61766 30.1737 6.50807C30.0543 6.26267 30.3876 6.05314 30.5511 6.2709Z" fill="#A37B7B"/>
<path d="M0.455049 20.7979C3.38854 19.7134 11.5203 16.8457 16.7352 26.9125C16.8528 27.1398 16.5952 27.4272 16.398 27.2655C13.9622 25.2622 10.7013 20.9426 0.555726 21.4762C0.180679 21.4963 0.102664 20.9281 0.455049 20.7979Z" fill="#A37B7B"/>
<path d="M0.349339 22.3578C1.87275 25.4511 10.7374 39.4918 17.9213 45.953C17.9213 45.953 23.3002 40.7183 27.679 33.7933C27.7716 33.647 27.9988 33.7053 28.0035 33.8789C28.0334 34.996 27.2039 39.4691 18.0246 50.0964C18.0246 50.0964 -0.502525 32.7527 0.0104594 22.4368C0.0200973 22.2475 0.265708 22.1883 0.349339 22.3578Z" fill="#A37B7B"/>
<path d="M23.3486 9.12452C23.5135 8.92858 23.829 9.13901 23.7031 9.36267C22.7421 11.0693 20.2845 15.3257 24.743 17.9345C24.743 17.9345 25.5691 18.3117 27.4211 18.0622C29.9261 17.7246 32.5255 19.1356 33.6363 20.9527C34.7292 22.7407 37.3357 24.3373 39.3882 20.8237C39.4551 20.7091 39.6544 20.7589 39.7172 20.9633C39.8223 21.3044 39.0161 26.1974 34.2914 23.397C33.821 23.1182 33.2206 22.725 31.5804 21.0058C29.2327 18.5457 26.7437 21.8454 23.1886 19.733C21.6596 18.8245 19.7646 16.4786 21.2666 12.6529C21.9169 10.996 22.9812 9.56211 23.3486 9.12452Z" fill="#A37B7B"/>
<path d="M60.1137 34.7915L64.3738 45.6352L68.1174 35.8458L71.9794 45.6782L76.1426 34.7915H77.3044L71.818 49.1745H71.108L67.5795 40.2779L64.2016 49.1745H63.384L57.7148 34.7915H60.1137ZM79.2946 34.7915H81.6935V49.0561H79.2946V34.7915ZM96.7861 34.7915V35.7167H91.6224V49.0561H89.2239V35.7167H84.0602V34.7915H96.7861ZM101.53 42.2143V49.0561H99.1319V34.7915H101.53V41.2891H108.695V34.7915H111.094V49.0561H108.695V42.2143H101.53ZM121.766 41.9776C121.766 42.9745 121.916 43.871 122.218 44.667C122.519 45.4559 122.931 46.1264 123.454 46.6787C123.986 47.2237 124.609 47.6433 125.326 47.9373C126.043 48.2242 126.821 48.3677 127.661 48.3677C128.163 48.3677 128.647 48.2708 129.113 48.0772C129.58 47.8836 130.01 47.6325 130.404 47.3242C130.806 47.0086 131.164 46.6572 131.48 46.2699C131.796 45.8755 132.053 45.4774 132.254 45.0758L133.266 45.7213C132.972 46.2017 132.624 46.6643 132.222 47.109C131.821 47.5465 131.354 47.9373 130.824 48.2815C130.3 48.6187 129.705 48.8876 129.038 49.0884C128.378 49.2892 127.639 49.3896 126.822 49.3896C125.638 49.3896 124.562 49.1924 123.595 48.7979C122.633 48.4035 121.809 47.8692 121.12 47.195C120.432 46.5209 119.898 45.7356 119.518 44.8392C119.145 43.9355 118.958 42.9817 118.958 41.9776C118.958 41.3107 119.044 40.6616 119.216 40.0305C119.388 39.3922 119.636 38.7969 119.959 38.2447C120.289 37.6853 120.687 37.1761 121.152 36.7171C121.626 36.2509 122.157 35.853 122.744 35.523C123.34 35.186 123.989 34.9278 124.692 34.7485C125.394 34.562 126.144 34.4688 126.94 34.4688C127.701 34.4688 128.4 34.5728 129.038 34.7808C129.683 34.9815 130.268 35.2506 130.791 35.5876C131.322 35.9247 131.792 36.3155 132.201 36.7601C132.617 37.1976 132.972 37.6566 133.266 38.1371L132.222 38.8256C131.627 37.671 130.959 36.8283 130.221 36.2976C129.482 35.7597 128.632 35.4908 127.672 35.4908C126.847 35.4908 126.076 35.6414 125.358 35.9426C124.641 36.2438 124.014 36.6741 123.476 37.2335C122.946 37.7929 122.526 38.4742 122.218 39.2774C121.916 40.0735 121.766 40.9736 121.766 41.9776ZM142.195 34.4688L148.907 49.0561H146.465L144.292 44.3012H138.171L135.923 49.0561H134.718L141.592 34.4688H142.195ZM138.591 43.3761H143.851L141.258 37.7283L138.591 43.3761ZM151.532 34.7915L156.921 46.1408L161.924 34.7915H163.064L156.588 49.3896H155.964L149.004 34.7915H151.532ZM170.637 34.4688L177.35 49.0561H174.908L172.735 44.3012H166.614L164.365 49.0561H163.161L170.035 34.4688H170.637ZM167.034 43.3761H172.294L169.702 37.7283L167.034 43.3761ZM187.452 35.4908C186.591 35.4908 185.795 35.6449 185.063 35.9533C184.339 36.2546 183.712 36.692 183.181 37.2658C182.658 37.8323 182.249 38.5209 181.955 39.3312C181.661 40.1345 181.514 41.0345 181.514 42.0314C181.514 43.0354 181.671 43.9427 181.987 44.753C182.31 45.5563 182.747 46.2413 183.299 46.8078C183.859 47.3743 184.515 47.8118 185.268 48.1202C186.021 48.4214 186.828 48.572 187.688 48.572C188.312 48.572 188.875 48.4895 189.378 48.3246C189.879 48.1525 190.331 47.9086 190.732 47.5931V42.5908H188.032V41.7409H193.132V48.0126C192.716 48.2349 192.297 48.4322 191.873 48.6043C191.45 48.7764 190.991 48.9199 190.496 49.0346C190.008 49.1494 189.471 49.2354 188.882 49.2928C188.294 49.3573 187.627 49.3896 186.882 49.3896C186.093 49.3896 185.343 49.3 184.633 49.1207C183.923 48.9485 183.263 48.7011 182.654 48.3784C182.051 48.0556 181.507 47.672 181.018 47.2273C180.531 46.7755 180.115 46.277 179.771 45.732C179.434 45.187 179.172 44.6024 178.986 43.9786C178.799 43.3546 178.706 42.7055 178.706 42.0314C178.706 41.3644 178.792 40.7154 178.964 40.0843C179.143 39.446 179.398 38.8471 179.728 38.2877C180.058 37.7212 180.459 37.2048 180.933 36.7387C181.406 36.2725 181.94 35.8708 182.535 35.5338C183.131 35.1967 183.78 34.935 184.483 34.7485C185.185 34.562 185.931 34.4688 186.721 34.4688C187.474 34.4688 188.169 34.5728 188.807 34.7808C189.453 34.9815 190.038 35.2506 190.561 35.5876C191.091 35.9247 191.561 36.3155 191.97 36.7601C192.379 37.1976 192.73 37.6566 193.025 38.1371L191.992 38.8256C191.389 37.671 190.718 36.8283 189.979 36.2976C189.248 35.7597 188.405 35.4908 187.452 35.4908ZM204.018 49.3896C202.914 49.3896 201.881 49.1924 200.92 48.7979C199.966 48.4035 199.134 47.8656 198.424 47.1843C197.721 46.4958 197.166 45.6962 196.757 44.7853C196.356 43.8674 196.155 42.8884 196.155 41.8485C196.155 41.1672 196.244 40.511 196.424 39.8799C196.61 39.2487 196.872 38.6606 197.209 38.1157C197.546 37.5706 197.951 37.0758 198.424 36.6311C198.905 36.1793 199.436 35.7955 200.016 35.48C200.598 35.1573 201.225 34.9098 201.9 34.7378C202.573 34.5584 203.28 34.4688 204.018 34.4688C204.757 34.4688 205.463 34.5584 206.138 34.7378C206.812 34.9098 207.439 35.1573 208.02 35.48C208.609 35.7955 209.139 36.1793 209.612 36.6311C210.086 37.0758 210.491 37.5706 210.828 38.1157C211.172 38.6606 211.434 39.2487 211.614 39.8799C211.8 40.511 211.893 41.1672 211.893 41.8485C211.893 42.537 211.8 43.204 211.614 43.8494C211.434 44.4877 211.172 45.0865 210.828 45.6459C210.491 46.2054 210.086 46.7145 209.612 47.1736C209.139 47.6325 208.609 48.027 208.02 48.3569C207.439 48.6867 206.812 48.9414 206.138 49.1207C205.463 49.3 204.757 49.3896 204.018 49.3896ZM204.018 48.6796C204.836 48.6796 205.556 48.5111 206.181 48.174C206.812 47.8297 207.342 47.3528 207.773 46.7432C208.203 46.1337 208.526 45.4129 208.741 44.581C208.964 43.749 209.075 42.8382 209.075 41.8485C209.075 40.866 208.964 39.966 208.741 39.1483C208.526 38.3307 208.203 37.628 207.773 37.0399C207.342 36.4446 206.812 35.9856 206.181 35.6629C205.556 35.333 204.836 35.168 204.018 35.168C203.187 35.168 202.455 35.333 201.824 35.6629C201.2 35.9856 200.673 36.4446 200.242 37.0399C199.819 37.628 199.5 38.3307 199.285 39.1483C199.07 39.966 198.963 40.866 198.963 41.8485C198.963 42.8382 199.07 43.749 199.285 44.581C199.5 45.4129 199.819 46.1337 200.242 46.7432C200.673 47.3528 201.2 47.8297 201.824 48.174C202.455 48.5111 203.187 48.6796 204.018 48.6796Z" fill="#A37B7B"/>
<path d="M58.3247 17.2319V26.9816H53.2988V6.51631H58.3247V15.4812H66.55V6.51631H71.5305V26.9816H66.55V17.2319H58.3247ZM87.7699 27.4344C86.1198 27.4344 84.5803 27.1677 83.1516 26.6345C81.7228 26.1012 80.4853 25.3566 79.4389 24.4008C78.3925 23.4348 77.5674 22.2929 76.9638 20.9748C76.3701 19.6466 76.0733 18.1928 76.0733 16.6131C76.0733 15.0637 76.3701 13.6449 76.9638 12.357C77.5674 11.0591 78.3925 9.94733 79.4389 9.02163C80.4853 8.09602 81.7228 7.37655 83.1516 6.86339C84.5803 6.35033 86.1198 6.09375 87.7699 6.09375C89.42 6.09375 90.9542 6.35534 92.3726 6.87851C93.8017 7.39166 95.0394 8.11104 96.0858 9.03674C97.142 9.96244 97.9728 11.0691 98.5764 12.357C99.1801 13.6349 99.4815 15.0384 99.4815 16.5678C99.4815 17.6545 99.3455 18.6808 99.0737 19.6466C98.8027 20.6026 98.4155 21.4829 97.912 22.2879C97.4085 23.0928 96.8048 23.8122 96.101 24.446C95.3963 25.0799 94.6066 25.6182 93.7311 26.061C92.8663 26.5037 91.9299 26.8407 90.9238 27.0722C89.9177 27.3136 88.8666 27.4344 87.7699 27.4344ZM87.7699 25.7138C88.766 25.7138 89.6468 25.4875 90.4114 25.0347C91.176 24.5719 91.8146 23.938 92.3279 23.133C92.8412 22.3281 93.2285 21.3722 93.4896 20.2655C93.7615 19.1486 93.8974 17.9312 93.8974 16.6131C93.8974 15.3151 93.7615 14.1279 93.4896 13.0513C93.2285 11.9747 92.8412 11.049 92.3279 10.2743C91.8146 9.49955 91.176 8.89589 90.4114 8.46322C89.6468 8.03055 88.766 7.81422 87.7699 7.81422C86.7637 7.81422 85.8783 8.03055 85.1136 8.46322C84.349 8.89589 83.7101 9.49955 83.1969 10.2743C82.6838 11.049 82.2963 11.9747 82.0348 13.0513C81.7732 14.1279 81.6423 15.3151 81.6423 16.6131C81.6423 17.9312 81.7732 19.1486 82.0348 20.2655C82.2963 21.3722 82.6838 22.3281 83.1969 23.133C83.7101 23.938 84.349 24.5719 85.1136 25.0347C85.8783 25.4875 86.7637 25.7138 87.7699 25.7138ZM103.979 6.51631H109.005V24.8837H119.449V26.9816H103.979V6.51631ZM122.693 6.51631H127.704V26.9816H122.693V6.51631ZM132.836 6.51631H140.261C142.173 6.51631 143.929 6.74266 145.529 7.19545C147.128 7.63813 148.507 8.28713 149.664 9.14236C150.821 9.99759 151.716 11.049 152.35 12.2967C152.994 13.5443 153.316 14.9681 153.316 16.5678C153.316 18.0067 153.044 19.3599 152.501 20.6277C151.958 21.8854 151.163 22.9872 150.116 23.9329C149.08 24.8787 147.803 25.6233 146.283 26.1666C144.764 26.7099 143.023 26.9816 141.061 26.9816H132.836V6.51631ZM137.862 24.8837H140.533C141.518 24.8837 142.445 24.7026 143.31 24.3404C144.185 23.9782 144.95 23.445 145.604 22.7406C146.258 22.0363 146.771 21.171 147.144 20.1448C147.526 19.1185 147.717 17.9413 147.717 16.6131C147.717 15.4661 147.535 14.4046 147.173 13.4286C146.822 12.4426 146.328 11.5924 145.695 10.878C145.061 10.1637 144.301 9.60525 143.415 9.20273C142.54 8.79027 141.579 8.58395 140.533 8.58395H137.862V24.8837ZM167.684 6.09375L177.283 26.9816H172.151L169.585 21.3974H161.632L158.946 26.9816H155.535L165.511 6.09375H167.684ZM162.583 19.4958H168.74L165.707 12.8853L162.583 19.4958ZM183.033 6.51631L189.765 15.7378L196.088 6.51631H199.484L191.484 18.1374V26.9816H186.459V18.4393L177.781 6.51631H183.033ZM209.625 27.2834C208.398 27.2834 207.322 27.1426 206.396 26.8609C205.48 26.569 204.701 26.1716 204.057 25.6686C203.413 25.1655 202.899 24.5668 202.518 23.8725C202.135 23.1683 201.874 22.3985 201.732 21.5634H205.219C205.34 22.0766 205.515 22.5545 205.747 22.9972C205.978 23.4399 206.27 23.8273 206.622 24.1593C206.985 24.4813 207.408 24.7379 207.891 24.9291C208.383 25.1102 208.952 25.2007 209.596 25.2007C210.018 25.2007 210.436 25.1554 210.848 25.0648C211.271 24.9743 211.648 24.8284 211.98 24.6271C212.312 24.4159 212.578 24.1492 212.78 23.8273C212.982 23.4952 213.082 23.0878 213.082 22.6048C213.082 22.0011 212.926 21.4628 212.614 20.9899C212.302 20.517 211.89 20.0894 211.377 19.7071C210.863 19.3147 210.28 18.9524 209.625 18.6204C208.972 18.2884 208.303 17.9563 207.619 17.6243C206.934 17.2822 206.266 16.925 205.611 16.5528C204.957 16.1805 204.374 15.7679 203.861 15.3151C203.347 14.8523 202.935 14.3342 202.623 13.7607C202.311 13.1771 202.155 12.513 202.155 11.7685C202.155 10.9535 202.331 10.2039 202.683 9.51967C203.045 8.82542 203.564 8.22677 204.238 7.72372C204.912 7.21056 205.737 6.81313 206.713 6.53142C207.689 6.23961 208.801 6.09375 210.048 6.09375C211.074 6.09375 212.005 6.2346 212.84 6.51631C213.676 6.79802 214.41 7.19044 215.044 7.69349C215.688 8.18652 216.226 8.77015 216.659 9.44419C217.091 10.1083 217.424 10.8227 217.655 11.5873H214.5C214.32 11.1044 214.109 10.6416 213.867 10.1988C213.626 9.75612 213.329 9.3688 212.976 9.03674C212.624 8.70469 212.197 8.4431 211.693 8.2519C211.191 8.05068 210.591 7.95007 209.897 7.95007C209.244 7.95007 208.69 8.03565 208.237 8.20664C207.795 8.37773 207.437 8.59907 207.166 8.87076C206.894 9.13234 206.697 9.42916 206.577 9.76113C206.456 10.0832 206.396 10.4001 206.396 10.712C206.396 11.2553 206.557 11.7484 206.879 12.1911C207.201 12.6337 207.624 13.0463 208.147 13.4286C208.68 13.8109 209.284 14.1782 209.958 14.5304C210.632 14.8725 211.317 15.2195 212.011 15.5717C212.714 15.9239 213.404 16.2962 214.078 16.6885C214.753 17.0709 215.351 17.4935 215.874 17.9563C216.407 18.4192 216.835 18.9323 217.157 19.4958C217.479 20.0592 217.64 20.6931 217.64 21.3974C217.64 22.2325 217.469 23.0073 217.127 23.7217C216.784 24.436 216.276 25.0598 215.602 25.5931C214.929 26.1163 214.088 26.5288 213.082 26.8306C212.086 27.1325 210.934 27.2834 209.625 27.2834Z" fill="#A37B7B"/>
</g>
<defs>
<clipPath id="clip0_2050_58426">
<rect width="220" height="50" fill="white"/>
</clipPath>
</defs>
</svg>
