<svg width="38" height="38" viewBox="0 0 38 38" fill="none" xmlns="http://www.w3.org/2000/svg">
<path d="M30.3947 15.2C31.8981 15.2 33.3678 14.7543 34.6178 13.9192C35.8679 13.0841 36.8422 11.8971 37.4176 10.5084C37.9929 9.11968 38.1434 7.59157 37.8501 6.11732C37.5568 4.64306 36.8328 3.28887 35.7698 2.22599C34.7067 1.16311 33.3522 0.439283 31.8776 0.146035C30.4031 -0.147212 28.8747 0.00329294 27.4857 0.578519C26.0967 1.15374 24.9095 2.12786 24.0742 3.37767C23.239 4.62748 22.7931 6.09687 22.7931 7.6C22.7931 9.61565 23.594 11.5487 25.0196 12.974C26.4451 14.3993 28.3786 15.2 30.3947 15.2ZM30.3947 3.8C31.1464 3.8 31.8812 4.02287 32.5063 4.44042C33.1313 4.85797 33.6184 5.45145 33.9061 6.14581C34.1938 6.84016 34.2691 7.60422 34.1224 8.34135C33.9757 9.07847 33.6138 9.75557 33.0822 10.287C32.5507 10.8184 31.8734 11.1804 31.1362 11.327C30.3989 11.4736 29.6347 11.3984 28.9402 11.1107C28.2457 10.8231 27.6521 10.3361 27.2344 9.71117C26.8168 9.08626 26.5939 8.35157 26.5939 7.6C26.5939 6.59218 26.9943 5.62564 27.7071 4.913C28.4199 4.20036 29.3866 3.8 30.3947 3.8ZM28.2092 19.893C28.0388 19.6181 27.801 19.3912 27.5183 19.2338C27.2356 19.0765 26.9174 18.9939 26.5939 18.9939C26.2704 18.9939 25.9522 19.0765 25.6695 19.2338C25.3868 19.3912 25.149 19.6181 24.9786 19.893L23.0782 22.99L16.8259 12.35C16.6577 12.0665 16.4185 11.8316 16.132 11.6685C15.8454 11.5053 15.5214 11.4196 15.1916 11.4196C14.8619 11.4196 14.5378 11.5053 14.2513 11.6685C13.9647 11.8316 13.7256 12.0665 13.5573 12.35L0.254623 35.15C0.0883065 35.438 0.000507583 35.7646 2.19425e-06 36.0971C-0.000503195 36.4297 0.0863024 36.7566 0.251743 37.0451C0.417183 37.3336 0.655464 37.5736 0.942768 37.7412C1.23007 37.9088 1.55634 37.998 1.88895 38H36.0958C36.4354 38.0007 36.7689 37.9104 37.0617 37.7385C37.3545 37.5667 37.5959 37.3195 37.7608 37.0227C37.9258 36.726 38.0081 36.3904 37.9994 36.0511C37.9906 35.7117 37.8911 35.3809 37.7111 35.093L28.2092 19.893ZM16.0468 34.2H5.19561L15.1916 17.1L20.7787 26.6L18.4033 30.4L16.0468 34.2ZM20.5127 34.2L23.3443 29.697L24.6935 27.683L26.5939 24.491L32.6751 34.2H20.5127Z" fill="#F9F6F1"/>
</svg>
