<svg width="20" height="28" viewBox="0 0 20 28" fill="none" xmlns="http://www.w3.org/2000/svg">
<path d="M10.0026 5.83398C9.69318 5.83398 9.39644 5.9569 9.17765 6.17569C8.95885 6.39449 8.83594 6.69123 8.83594 7.00065V11.6673C8.83594 11.9767 8.95885 12.2735 9.17765 12.4923C9.39644 12.7111 9.69318 12.834 10.0026 12.834C10.312 12.834 10.6088 12.7111 10.8276 12.4923C11.0464 12.2735 11.1693 11.9767 11.1693 11.6673V7.00065C11.1693 6.69123 11.0464 6.39449 10.8276 6.17569C10.6088 5.9569 10.312 5.83398 10.0026 5.83398Z" fill="white"/>
<path fill-rule="evenodd" clip-rule="evenodd" d="M0.667969 9.33333C0.667969 6.85798 1.6513 4.48401 3.40164 2.73367C5.15198 0.983331 7.52595 0 10.0013 0C12.4767 0 14.8506 0.983331 16.601 2.73367C18.3513 4.48401 19.3346 6.85798 19.3346 9.33333V18.6667C19.3346 21.142 18.3513 23.516 16.601 25.2663C14.8506 27.0167 12.4767 28 10.0013 28C7.52595 28 5.15198 27.0167 3.40164 25.2663C1.6513 23.516 0.667969 21.142 0.667969 18.6667V9.33333ZM17.0013 9.33333V18.6667C17.0013 20.5232 16.2638 22.3037 14.951 23.6164C13.6383 24.9292 11.8578 25.6667 10.0013 25.6667C8.14479 25.6667 6.36431 24.9292 5.05155 23.6164C3.7388 22.3037 3.0013 20.5232 3.0013 18.6667V9.33333C3.0013 7.47682 3.7388 5.69634 5.05155 4.38359C6.36431 3.07083 8.14479 2.33333 10.0013 2.33333C11.8578 2.33333 13.6383 3.07083 14.951 4.38359C16.2638 5.69634 17.0013 7.47682 17.0013 9.33333Z" fill="white"/>
</svg>
