<svg width="18" height="17" viewBox="0 0 18 17" fill="none" xmlns="http://www.w3.org/2000/svg">
<path d="M15.75 12.25H5.25V1.75H15.75M15.75 0.25H5.25C4.85218 0.25 4.47064 0.408035 4.18934 0.68934C3.90804 0.970644 3.75 1.35218 3.75 1.75V12.25C3.75 12.6478 3.90804 13.0294 4.18934 13.3107C4.47064 13.592 4.85218 13.75 5.25 13.75H15.75C16.1478 13.75 16.5294 13.592 16.8107 13.3107C17.092 13.0294 17.25 12.6478 17.25 12.25V1.75C17.25 1.35218 17.092 0.970644 16.8107 0.68934C16.5294 0.408035 16.1478 0.25 15.75 0.25ZM2.25 3.25H0.75V15.25C0.75 15.6478 0.908035 16.0294 1.18934 16.3107C1.47064 16.592 1.85218 16.75 2.25 16.75H14.25V15.25H2.25M11.97 7.2175L9.9075 9.8725L8.4375 8.1025L6.375 10.75H14.625L11.97 7.2175Z" fill="#2C3F50"/>
</svg>
