<svg width="48" height="49" viewBox="0 0 48 49" fill="none" xmlns="http://www.w3.org/2000/svg">
<rect y="0.982422" width="48" height="48" rx="23.5" fill="#561931"/>
<mask id="mask0_1_5720" style="mask-type:alpha" maskUnits="userSpaceOnUse" x="12" y="12" width="24" height="25">
<rect x="12" y="12.9824" width="24" height="24" fill="#D9D9D9"/>
</mask>
<g mask="url(#mask0_1_5720)">
<path d="M22.5998 28.9824C22.5998 27.6324 22.7206 26.6616 22.9623 26.0699C23.204 25.4783 23.7165 24.8324 24.4998 24.1324C25.1831 23.5324 25.704 23.0116 26.0623 22.5699C26.4206 22.1283 26.5998 21.6241 26.5998 21.0574C26.5998 20.3741 26.3706 19.8074 25.9123 19.3574C25.454 18.9074 24.8165 18.6824 23.9998 18.6824C23.1498 18.6824 22.504 18.9408 22.0623 19.4574C21.6206 19.9741 21.3081 20.4991 21.1248 21.0324L18.5498 19.9324C18.8998 18.8658 19.5415 17.9408 20.4748 17.1574C21.4081 16.3741 22.5831 15.9824 23.9998 15.9824C25.7498 15.9824 27.0956 16.4699 28.0373 17.4449C28.979 18.4199 29.4498 19.5908 29.4498 20.9574C29.4498 21.7908 29.2706 22.5033 28.9123 23.0949C28.554 23.6866 27.9915 24.3574 27.2248 25.1074C26.4081 25.8908 25.9123 26.4866 25.7373 26.8949C25.5623 27.3033 25.4748 27.9991 25.4748 28.9824H22.5998ZM23.9998 34.9824C23.4498 34.9824 22.979 34.7866 22.5873 34.3949C22.1956 34.0033 21.9998 33.5324 21.9998 32.9824C21.9998 32.4324 22.1956 31.9616 22.5873 31.5699C22.979 31.1783 23.4498 30.9824 23.9998 30.9824C24.5498 30.9824 25.0206 31.1783 25.4123 31.5699C25.804 31.9616 25.9998 32.4324 25.9998 32.9824C25.9998 33.5324 25.804 34.0033 25.4123 34.3949C25.0206 34.7866 24.5498 34.9824 23.9998 34.9824Z" fill="#F9F6F1"/>
</g>
</svg>
