<svg width="40" height="39" viewBox="0 0 40 39" fill="none" xmlns="http://www.w3.org/2000/svg">
<path d="M39.5 19.3765C39.5 19.3765 35.8861 21.8847 30.4403 23.6798C33.0131 28.7676 33.7759 33.0771 33.7759 33.0771C33.7759 33.0771 29.4305 32.3175 24.3004 29.7689C22.4935 35.1698 19.9612 38.7539 19.9612 38.7539C19.9612 38.7539 17.429 35.1729 15.6221 29.7689C10.4919 32.3206 6.14648 33.0771 6.14648 33.0771C6.14648 33.0771 6.91238 28.7676 9.48212 23.6798C4.03626 21.8878 0.422363 19.3765 0.422363 19.3765C0.422363 19.3765 4.03626 16.8652 9.48212 15.0732C6.90925 9.98547 6.14648 5.67592 6.14648 5.67592C6.14648 5.67592 10.4919 6.43557 15.6221 8.98408C17.429 3.58322 19.9612 -0.000808716 19.9612 -0.000808716C19.9612 -0.000808716 22.4935 3.58012 24.3004 8.98408C29.4305 6.43247 33.7759 5.67592 33.7759 5.67592C33.7759 5.67592 33.01 9.98547 30.4403 15.0732C35.8861 16.8652 39.5 19.3765 39.5 19.3765ZM26.0886 19.3765C26.0886 18.5363 26.0511 17.7116 25.9823 16.8993C25.454 16.2793 24.8881 15.6685 24.2942 15.0763C23.6971 14.4841 23.0843 13.9292 22.459 13.4052C21.6431 13.3339 20.8084 13.2967 19.9643 13.2967C19.1202 13.2967 18.2856 13.3339 17.4665 13.4021C16.8412 13.9261 16.2285 14.481 15.6314 15.0732C15.0343 15.6654 14.4716 16.2762 13.9432 16.8962C13.8745 17.7054 13.8369 18.5332 13.8369 19.3734C13.8369 20.2136 13.8745 21.0352 13.9432 21.8475C14.4716 22.4707 15.0374 23.0815 15.6314 23.6705C16.2285 24.2627 16.8444 24.8208 17.4696 25.3448C18.2856 25.413 19.1202 25.4501 19.9643 25.4501C20.8084 25.4501 21.64 25.413 22.459 25.3448C23.0874 24.8208 23.7033 24.2627 24.2973 23.6705C24.8944 23.0784 25.4571 22.4676 25.9854 21.8475C26.0542 21.0383 26.0917 20.2105 26.0917 19.3734L26.0886 19.3765Z" fill="#F59191"/>
</svg>
