<svg width="196" height="193" viewBox="0 0 196 193" fill="none" xmlns="http://www.w3.org/2000/svg">
<path d="M192.72 70.7344C185.879 49.4058 166.236 35.8458 145.113 35.8458C138.619 15.6104 119.761 0.980469 97.5054 0.980469C75.2501 0.980469 56.6461 15.4245 50.0365 35.4506C29.0754 35.4506 9.54732 48.8014 2.56798 69.9207C-4.45758 91.1795 3.39991 113.833 20.4323 126.416C13.7534 146.582 20.3398 169.609 38.2734 182.89C56.2071 196.147 80.0108 195.589 97.1587 183.146C114.191 195.752 137.995 196.519 156.067 183.401C174.116 170.283 180.911 147.326 174.417 127.091C191.542 114.647 199.607 92.0863 192.766 70.781L192.72 70.7344Z" fill="#A37B7B"/>
<rect x="71.011" y="62.1555" width="51.944" height="75.6017" rx="1.80004" stroke="#F7F3F2" stroke-width="3.60008"/>
<path d="M72.5539 64.9717C72.5539 64.3672 73.2175 63.9976 73.7314 64.3157L100.746 81.0388C101.124 81.2732 101.355 81.6867 101.355 82.132V153.963C101.355 154.98 100.229 155.594 99.3736 155.044L72.5539 137.803V64.9717Z" fill="#F7F3F2" stroke="#F7F3F2" stroke-width="3.60008"/>
<rect x="107.785" y="77.3281" width="28.8006" height="45.2582" fill="#A37B7B"/>
<path fill-rule="evenodd" clip-rule="evenodd" d="M118.077 96.8711H126.305V91.2145C126.305 88.9422 124.463 87.1001 122.191 87.1001C119.919 87.1001 118.077 88.9421 118.077 91.2145V96.8711ZM114.477 96.8711H110.874C109.737 96.8711 108.816 97.7921 108.816 98.9283V114.871C108.816 116.008 109.737 116.929 110.874 116.929H133.503C134.639 116.929 135.56 116.008 135.56 114.872V98.9283C135.56 97.7921 134.639 96.8711 133.503 96.8711H129.905V91.2145C129.905 86.9539 126.452 83.5 122.191 83.5C117.93 83.5 114.477 86.9539 114.477 91.2145V96.8711Z" fill="#F7F3F2"/>
<ellipse cx="97.0191" cy="117.764" rx="2.93706" ry="3.18182" fill="#A37B7B"/>
<circle cx="122.186" cy="105.1" r="3.60008" fill="#A37B7B"/>
<path d="M93.8395 123.638C94.9167 123.638 95.6474 122.703 96.0667 121.771C96.517 120.77 96.7766 119.439 96.7766 118.008C96.7766 116.577 96.517 115.246 96.0667 114.246C95.6474 113.314 94.9167 112.379 93.8395 112.379C92.7623 112.379 92.0316 113.314 91.6123 114.246C91.162 115.246 90.9025 116.577 90.9025 118.008C90.9025 119.439 91.162 120.77 91.6123 121.771C92.0316 122.703 92.7623 123.638 93.8395 123.638Z" fill="#A37B7B" stroke="#F7F3F2" stroke-width="1.46853"/>
<rect x="120.641" y="107.156" width="3.08578" height="5.14297" rx="1.54289" fill="#A37B7B"/>
<path d="M44.0829 48.4961L45.0282 57.0414C45.3986 60.3895 47.5584 63.2722 50.6676 64.5682L52.826 65.4679L50.6676 66.3676C47.5584 67.6637 45.3986 70.5463 45.0282 73.8944L44.0829 82.4397L43.1376 73.8944C42.7672 70.5463 40.6074 67.6637 37.4982 66.3676L35.3398 65.4679L37.4982 64.5682C40.6074 63.2722 42.7672 60.3895 43.1376 57.0414L44.0829 48.4961Z" fill="#F7F3F2"/>
<path d="M135.69 72.4844L136.027 74.5211C136.613 78.072 139.205 80.9611 142.671 81.9288L143.033 82.0298L142.671 82.1308C139.205 83.0985 136.613 85.9876 136.027 89.5385L135.69 91.5753L135.354 89.5385C134.767 85.9876 132.176 83.0985 128.709 82.1308L128.348 82.0298L128.709 81.9288C132.176 80.9611 134.767 78.072 135.354 74.5211L135.69 72.4844Z" fill="#F7F3F2"/>
<path d="M144.501 88.6367L144.928 90.1433C145.686 92.8179 147.245 95.1962 149.396 96.9584C147.245 98.7206 145.686 101.099 144.928 103.774L144.501 105.28L144.073 103.774C143.315 101.099 141.756 98.7206 139.605 96.9584C141.756 95.1962 143.315 92.8179 144.073 90.1433L144.501 88.6367Z" fill="#F7F3F2"/>
<path d="M80.8925 76.7763L83.285 75.6662L80.8925 74.5561L77.0706 72.7828C72.8391 70.8194 69.9597 66.7666 69.4984 62.1246L67.8889 45.9298L65.4534 45.9298L63.8439 62.1246C63.3825 66.7666 60.5031 70.8194 56.2716 72.7828L52.4498 74.5561L50.0572 75.6662L52.4498 76.7763L56.2716 78.5496C60.5031 80.5129 63.3825 84.5658 63.8439 89.2077L65.4534 105.403H67.8889L69.4984 89.2077C69.9597 84.5658 72.8391 80.5129 77.0706 78.5496L80.8925 76.7763Z" fill="#F7F3F2" stroke="#A37B7B" stroke-width="2.44755"/>
</svg>
