<svg width="196" height="206" viewBox="0 0 196 206" fill="none" xmlns="http://www.w3.org/2000/svg">
<path d="M98.2199 0.472656L127.053 14.3465L158.539 20.0409L173.693 48.1919L195.818 71.2821L191.509 102.947L195.818 134.62L173.693 157.71L158.539 185.861L127.053 191.555L98.2199 205.429L69.3953 191.555L37.9006 185.861L22.7469 157.71L0.621582 134.62L4.93126 102.947L0.621582 71.2821L22.7469 48.1919L37.9006 20.0409L69.3953 14.3465L98.2199 0.472656Z" fill="#A37B7B"/>
<path d="M38.2075 135.124L39.1767 143.343C47.094 135.558 68.6027 127.558 98.6225 127.558C128.641 127.558 150.152 135.558 158.068 143.344L159.036 135.124C146.991 126.446 124.455 120.602 98.6225 120.602C72.789 120.602 50.2545 126.446 38.2075 135.124Z" fill="#F7F3F2"/>
<path d="M152.107 118.897C149.786 118.897 147.906 117.01 147.906 114.681C147.906 112.352 149.786 110.465 152.107 110.465C154.428 110.465 156.308 112.352 156.308 114.681C156.308 117.01 154.428 118.897 152.107 118.897ZM126.861 111.266C124.543 111.266 122.661 109.379 122.661 107.05C122.661 104.721 124.543 102.834 126.861 102.834C129.182 102.834 131.064 104.721 131.064 107.05C131.064 109.379 129.182 111.266 126.861 111.266ZM98.6216 108.078C96.3009 108.078 94.4203 106.191 94.4203 103.862C94.4203 101.533 96.3009 99.6463 98.6216 99.6463C100.942 99.6463 102.823 101.533 102.823 103.862C102.823 106.191 100.942 108.078 98.6216 108.078ZM70.3807 111.266C68.06 111.266 66.1794 109.379 66.1794 107.05C66.1794 104.721 68.06 102.834 70.3807 102.834C72.7014 102.834 74.5819 104.721 74.5819 107.05C74.5819 109.379 72.7014 111.266 70.3807 111.266ZM45.1351 118.897C42.8167 118.897 40.935 117.01 40.935 114.681C40.935 112.352 42.8167 110.465 45.1351 110.465C47.4557 110.465 49.3375 112.352 49.3375 114.681C49.3375 117.01 47.4557 118.897 45.1351 118.897ZM165.903 77.5782C163.552 77.5782 161.647 79.4909 161.647 81.8499C161.647 83.423 162.503 84.7828 163.765 85.5235L138.159 112.001L137.735 74.2327C137.758 74.2339 137.781 74.2397 137.805 74.2397C140.156 74.2397 142.062 72.327 142.062 69.968C142.062 67.609 140.156 65.6963 137.805 65.6963C135.454 65.6963 133.548 67.609 133.548 69.968C133.548 71.8586 134.781 73.4433 136.477 74.0055L112.691 104.394L100.122 69.0301C100.828 65.3972 101.736 61.2101 102.745 57.7347C108.093 57.1157 111.961 55.5334 111.961 55.5334C111.961 55.5334 108.007 53.9116 102.566 53.3077C100.188 49.0232 98.6216 43.8415 98.6216 43.8415C98.6216 43.8415 97.0552 49.0232 94.6768 53.3077C89.2349 53.9116 85.282 55.5334 85.282 55.5334C85.282 55.5334 89.1494 57.1157 94.4966 57.7347C95.5062 61.2101 96.4141 65.3983 97.1199 69.0301L84.5519 104.394L60.7664 74.0055C62.461 73.4433 63.6936 71.8586 63.6936 69.968C63.6936 67.609 61.7876 65.6963 59.4369 65.6963C57.0862 65.6963 55.1813 67.609 55.1813 69.968C55.1813 72.327 57.0862 74.2397 59.4369 74.2397C59.4623 74.2397 59.4842 74.2339 59.5085 74.2327L59.0846 112.001L33.4785 85.5235C34.7388 84.7828 35.5971 83.423 35.5971 81.8499C35.5971 79.4909 33.6899 77.5782 31.3404 77.5782C28.9897 77.5782 27.0825 79.4909 27.0825 81.8499C27.0825 84.209 28.9897 86.1217 31.3404 86.1217C31.7123 86.1217 32.0693 86.0579 32.4147 85.9675L37.7595 131.324C50.7825 122.698 72.9636 117.126 98.6216 117.126C124.278 117.126 146.459 122.698 159.485 131.324L164.83 85.9675C165.174 86.0579 165.53 86.1217 165.903 86.1217C168.254 86.1217 170.159 84.209 170.159 81.8499C170.159 79.4909 168.254 77.5782 165.903 77.5782Z" fill="#F7F3F2"/>
<path d="M118.783 32.7852L119.346 37.2172C119.918 41.7279 122.964 45.5399 127.238 47.0928C122.964 48.6458 119.918 52.4578 119.346 56.9685L118.783 61.4005L118.221 56.9685C117.648 52.4578 114.602 48.6458 110.329 47.0928C114.602 45.5399 117.648 41.7279 118.221 37.2172L118.783 32.7852Z" fill="#F7F3F2"/>
<path d="M35.2119 135.543L35.7825 140.22C36.3152 144.586 39.2268 148.296 43.3413 149.851C39.2268 151.406 36.3152 155.115 35.7825 159.482L35.2119 164.158L34.6413 159.482C34.1086 155.115 31.1969 151.406 27.0825 149.851C31.1969 148.296 34.1086 144.586 34.6413 140.22L35.2119 135.543Z" fill="#F7F3F2"/>
<path d="M110.805 138.256L115.01 136.841L110.805 135.425C105.276 133.564 101.277 128.731 100.486 122.95L99.7771 117.778L96.8181 117.778L96.1096 122.95C95.3177 128.731 91.3196 133.564 85.7897 135.425L81.5853 136.841L85.7897 138.256C91.3196 140.117 95.3177 144.951 96.1096 150.731L96.8181 155.903H99.7771L100.486 150.731C101.277 144.951 105.276 140.117 110.805 138.256Z" fill="#F7F3F2" stroke="#A37B7B" stroke-width="2.98658"/>
</svg>
