<svg width="196" height="196" viewBox="0 0 196 196" fill="none" xmlns="http://www.w3.org/2000/svg">
<path d="M180.579 97.9499L194.663 56.4355C197.84 47.0766 190.876 37.3716 180.998 37.3716H158.42V14.7937C158.42 4.91581 148.715 -2.04878 139.356 1.12852L97.8413 15.2124L56.3272 1.12852C46.9683 -2.04878 37.263 4.91581 37.263 14.7937V37.3716H14.6851C4.80721 37.3716 -2.15717 47.0766 1.02014 56.4355L15.1039 97.9499L1.02014 139.464C-2.15717 148.823 4.80721 158.528 14.6851 158.528H37.263V181.106C37.263 190.984 46.9683 197.949 56.3272 194.771L97.8413 180.687L139.356 194.771C148.715 197.949 158.42 190.984 158.42 181.106V158.528H180.998C190.876 158.528 197.84 148.823 194.663 139.464L180.579 97.9499Z" fill="#A37B7B"/>
<path d="M122.628 45.6381C122.328 45.8286 122.192 46.3456 122.247 46.9714C122.247 47.1619 123.117 47.951 124.179 48.7129L126.056 50.1278L124.179 52.1686C123.117 53.3114 122.274 54.291 122.274 54.3726C122.274 54.4543 122.682 54.8624 123.199 55.2706L124.124 56.0053L125.947 53.9917C126.954 52.8761 127.879 51.9509 128.015 51.9509C128.478 51.9509 132.668 56.4406 134.6 59.0256C141.892 68.6853 145.593 81.2293 144.614 92.7665C143.552 104.957 138.6 115.759 130.219 124.222C119.906 134.671 106.601 139.732 91.526 138.997C80.7507 138.453 69.4856 133.773 61.4585 126.453L60.1252 125.229L61.9483 123.242C62.9551 122.154 63.7714 121.174 63.7714 121.093C63.7714 120.984 63.3904 120.548 62.9551 120.113L62.1115 119.297L60.3429 121.283C59.3633 122.344 58.4381 123.242 58.3021 123.242C58.1932 123.242 57.2681 122.263 56.2613 121.065C54.411 118.834 53.6219 118.399 52.8872 119.297C52.3702 119.923 52.7512 120.793 54.4382 122.807C55.3089 123.841 56.1253 124.82 56.2613 125.011C56.4518 125.256 56.0436 125.909 54.8464 127.188C53.1865 129.011 52.8328 129.882 53.4858 130.535C54.1933 131.242 54.9824 130.861 56.6695 128.956L58.3565 127.052L60.2612 128.739C68.642 136.249 79.4174 140.684 91.6076 141.609L93.9749 141.8V145.31V148.82H86.6553C81.8663 148.82 79.0364 148.929 78.4378 149.147C75.88 149.99 74.9004 151.623 74.71 155.16L74.6011 157.527H99.9612H125.349L125.213 155.106C125.022 152.112 124.369 150.752 122.546 149.691L121.321 148.956L113.648 148.874L105.948 148.793V144.63V140.466L107.526 140.113C108.369 139.922 110.301 139.351 111.798 138.834C127.335 133.419 139.389 121.201 144.586 105.61C149.702 90.2088 147.443 73.4743 138.382 59.9508C136.206 56.7127 131.825 51.5155 130.573 50.6992C130.192 50.4543 129.893 50.1278 129.893 49.9645C129.893 49.8285 130.382 49.1754 130.981 48.5224C132.151 47.2435 132.233 47.0258 131.797 46.2095C131.335 45.366 130.41 45.6109 129.049 46.9442L127.743 48.2231L125.866 46.8081C124.042 45.4748 123.308 45.2027 122.628 45.6381Z" fill="#F7F3F2"/>
<path d="M91.4993 47.8649C87.1728 49.171 82.5471 54.0688 79.5267 60.5449C78.3839 62.9394 77.2954 65.851 77.4587 66.0142C77.5131 66.0686 78.8464 66.5856 80.3974 67.1571C83.6083 68.3815 87.8803 69.3339 91.1728 69.5516L93.4312 69.7148V58.6402V47.5928L92.8326 47.62C92.4789 47.62 91.8802 47.7288 91.4993 47.8649Z" fill="#F7F3F2"/>
<path d="M95.8799 58.613V69.7148L98.4105 69.5244C102.873 69.2251 111.471 66.885 111.88 65.8782C112.261 64.8714 108.478 57.2253 106.057 54.0961C103.472 50.722 99.6621 48.0281 96.9955 47.6744L95.8799 47.5111V58.613Z" fill="#F7F3F2"/>
<path d="M81.699 49.4729C76.6379 51.1872 72.3659 53.5273 68.3387 56.7653C67.3047 57.6088 66.5156 58.4251 66.57 58.5884C66.8421 59.4319 74.706 65.1461 75.0053 64.7107C75.0325 64.6563 75.4951 63.5679 75.9848 62.289C77.8624 57.5272 80.3657 53.4184 83.4133 50.1532C84.3112 49.2008 85.0187 48.4117 84.9643 48.4117C84.9099 48.4117 83.4405 48.9015 81.699 49.4729Z" fill="#F7F3F2"/>
<path d="M106.136 50.3984C109.075 53.4187 111.578 57.5003 113.565 62.4798C114.054 63.7315 114.49 64.7383 114.544 64.7383C115.034 64.7383 119.36 61.8268 121.483 60.0581C123.088 58.7248 123.115 58.6976 122.626 58.1534C121.809 57.2282 118.027 54.4527 115.932 53.2011C112.912 51.4052 109.157 49.7998 105.701 48.8202L104.231 48.412L106.136 50.3984Z" fill="#F7F3F2"/>
<path d="M63.1448 61.8002C58.6279 67.1335 55.5803 73.147 54.0021 79.8679C53.3763 82.5346 52.8593 87.3236 53.1586 87.6773C53.2402 87.7862 57.349 87.8406 62.3013 87.8134L71.2535 87.7317L71.444 84.0039C71.6889 79.6503 72.4508 74.2898 73.4576 70.2354C74.1106 67.5144 74.1378 67.3239 73.7024 67.0518C71.5528 65.7729 67.4168 62.9158 66.138 61.773C65.2672 61.0111 64.5053 60.3853 64.4509 60.3853C64.3965 60.3853 63.7979 61.0383 63.1448 61.8002Z" fill="#F7F3F2"/>
<path d="M124.179 61.0649C123.145 62.1805 119.39 64.9016 117.159 66.1805C115.717 66.9968 115.227 67.405 115.336 67.7315C116.315 70.2348 117.785 79.2415 118.084 84.5203L118.275 87.8672H127.363H136.424V86.806C136.424 83.6768 135.145 77.8538 133.621 73.9355C131.907 69.5818 128.968 64.82 126.166 61.7724L124.86 60.3302L124.179 61.0649Z" fill="#F7F3F2"/>
<path d="M76.4759 68.7383C76.1766 69.2008 74.9249 75.4048 74.544 78.2075C74.3263 79.8401 74.0542 82.6972 73.9454 84.5203L73.7549 87.8672H83.5778H93.428V80.1394V72.3845L92.2852 72.2484C86.19 71.5681 82.299 70.7246 78.8977 69.3369C76.8025 68.4934 76.6392 68.4389 76.4759 68.7383Z" fill="#F7F3F2"/>
<path d="M111.88 68.8465C109.893 69.9893 101.186 72.0845 98.356 72.0845C97.6758 72.0845 96.8322 72.1661 96.4785 72.2478L95.8799 72.411L95.9343 80.0844L96.0159 87.7305L105.893 87.8121C115.363 87.8665 115.743 87.8665 115.743 87.3768C115.743 83.8666 114.709 75.894 113.648 71.4587C112.968 68.5744 112.805 68.3023 111.88 68.8465Z" fill="#F7F3F2"/>
<path d="M53.0511 91.8695C53.5409 97.7742 55.0919 103.243 57.6769 108.332C59.1734 111.243 62.4115 115.896 63.8536 117.202L64.5339 117.855L66.3026 116.359C68.2617 114.699 70.5474 113.121 72.7786 111.842L74.3296 110.971L73.9487 109.692C72.7242 105.692 71.3909 96.7402 71.3909 92.577V90.3185H62.1666H52.915L53.0511 91.8695Z" fill="#F7F3F2"/>
<path d="M73.9454 93.5836C74.2447 98.7536 75.197 105.012 76.2855 108.849L76.5576 109.855L78.5711 109.066C82.8976 107.407 88.8022 106.1 92.1763 106.1H93.428V98.2094V90.3184H83.5778H73.7549L73.9454 93.5836Z" fill="#F7F3F2"/>
<path d="M96.0147 90.6683C95.9331 90.8588 95.9058 94.369 95.9331 98.4777L96.0147 105.961L99.1439 106.26C103.77 106.75 107.47 107.648 111.552 109.307L112.967 109.879L113.103 109.28C114.708 102.097 115.198 98.8859 115.606 92.954L115.797 90.3146H105.974C98.3004 90.3146 96.0963 90.3962 96.0147 90.6683Z" fill="#F7F3F2"/>
<path d="M118.084 93.6346C117.784 98.7501 116.261 108.165 115.363 110.478C115.227 110.777 115.852 111.294 117.784 112.491C119.226 113.389 121.458 114.968 122.737 116.002L125.104 117.906L126.029 116.818C131.961 110.097 135.716 101.281 136.342 92.7638L136.505 90.3149H127.39H118.274L118.084 93.6346Z" fill="#F7F3F2"/>
<path d="M89.6211 108.846C86.7912 109.2 82.8729 110.152 80.0975 111.186C78.6825 111.73 77.4581 112.193 77.4036 112.247C77.2132 112.438 78.7642 116.193 80.1791 118.996C82.5192 123.621 85.7028 127.349 88.7504 129.145C89.866 129.798 92.6143 130.859 93.2129 130.859C93.3217 130.859 93.4306 125.825 93.4306 119.703V108.547L92.4238 108.574C91.8524 108.601 90.6007 108.71 89.6211 108.846Z" fill="#F7F3F2"/>
<path d="M95.8799 119.543C95.8799 125.801 95.9887 130.618 96.1248 130.699C96.5874 130.999 99.7982 129.801 101.24 128.822C105.05 126.264 108.723 121.094 111.227 114.754C111.608 113.774 111.934 112.768 111.934 112.55C111.934 112.06 107.744 110.428 104.451 109.693C102.002 109.121 98.0567 108.55 96.6418 108.55H95.8799V119.543Z" fill="#F7F3F2"/>
<path d="M74.1114 113.91C70.6013 116.195 68.8598 117.447 67.717 118.481L66.3564 119.706L67.717 120.957C70.9006 123.842 76.3699 126.971 81.1861 128.631C85.3493 130.073 85.3221 130.073 83.4174 128.005C80.5059 124.903 77.3767 119.651 75.744 115.134C75.4175 114.209 75.0638 113.447 74.9549 113.474C74.8733 113.474 74.4924 113.665 74.1114 113.91Z" fill="#F7F3F2"/>
<path d="M113.566 115.675C111.607 120.681 108.886 125.117 105.947 128.11C105.049 129.008 104.451 129.77 104.587 129.77C105.212 129.77 110.138 128.055 112.124 127.157C113.294 126.613 115.226 125.579 116.423 124.872C118.736 123.457 123.09 120.11 123.09 119.756C123.09 119.294 118.192 115.593 115.716 114.151L114.464 113.443L113.566 115.675Z" fill="#F7F3F2"/>
<path d="M61.5136 160.383C59.4729 161.091 58.4116 162.805 58.6838 164.9L58.8198 165.934L56.3709 166.016C54.2485 166.097 53.8675 166.179 53.5682 166.641C53.3233 166.995 53.2961 167.403 53.4594 167.784L53.677 168.41H105.758C145.866 168.41 150.893 168.329 151.138 168.084C151.628 167.594 151.519 166.56 150.947 166.233C150.621 166.07 147.383 165.961 142.294 165.961H141.186V164.383C141.186 162.587 140.505 161.363 139.063 160.574C138.247 160.138 135.689 160.111 100.37 160.057C68.806 160.002 62.3844 160.057 61.5136 160.383Z" fill="#F7F3F2"/>
<path d="M43.0366 166.261C42.4652 166.587 42.3836 167.594 42.8734 168.084C43.3087 168.519 46.6828 168.519 47.1182 168.084C47.5263 167.675 47.5263 166.696 47.1182 166.288C46.71 165.88 43.6897 165.88 43.0366 166.261Z" fill="#F7F3F2"/>
<path d="M69.7661 80.1841L72.805 78.9174L69.7661 77.6507L65.9982 76.0801C61.0313 74.0096 57.581 69.4046 56.9893 64.056L55.3391 49.1382L52.6109 49.1382L50.9607 64.056C50.369 69.4046 46.9187 74.0096 41.9518 76.0801L38.1839 77.6507L35.145 78.9174L38.1839 80.1841L41.9518 81.7548C46.9187 83.8252 50.369 88.4303 50.9607 93.7788L52.6109 108.697H55.3391L56.9893 93.7788C57.581 88.4303 61.0313 83.8252 65.9982 81.7548L69.7661 80.1841Z" fill="#F7F3F2" stroke="#A37B7B" stroke-width="2.74476"/>
<path d="M65.3615 16.3516L66.0672 23.4435C66.5192 27.9857 69.3381 31.9508 73.4798 33.87C69.3381 35.7891 66.5192 39.7542 66.0672 44.2965L65.3615 51.3884L64.6557 44.2965C64.2037 39.7542 61.3848 35.7891 57.2432 33.87C61.3848 31.9508 64.2037 27.9857 64.6557 23.4435L65.3615 16.3516Z" fill="#F7F3F2"/>
<path d="M130.115 131.082L130.545 134.2C131.084 138.103 133.789 141.362 137.526 142.61C133.789 143.858 131.084 147.117 130.545 151.02L130.115 154.138L129.684 151.02C129.146 147.117 126.441 143.858 122.704 142.61C126.441 141.362 129.146 138.103 129.684 134.2L130.115 131.082Z" fill="#F7F3F2"/>
<path d="M76.4798 68.7422C76.1805 69.2047 74.9288 75.4087 74.5479 78.2114C74.3302 79.844 74.0581 82.7011 73.9493 84.5242L73.7588 87.8711H83.5818H93.4319V80.1433V72.3884L92.2891 72.2523C86.194 71.5721 82.3029 70.7285 78.9016 69.3408C76.8064 68.4973 76.6431 68.4429 76.4798 68.7422Z" fill="#F7F3F2"/>
<circle cx="126.545" cy="33.3679" r="3.29371" fill="#F7F3F2"/>
<circle cx="60.1228" cy="139.317" r="3.29371" fill="#F7F3F2"/>
<circle cx="131.758" cy="40.7807" r="1.92133" fill="#F7F3F2"/>
</svg>
